<svg xmlns="http://www.w3.org/2000/svg" viewBox="0 0 32 32">
  <path fill="#fff" d="M20.63,15.12h-2.29l-1.76,1.76h4.05c-.39,1.39-1.66,2.41-3.17,2.41-1.82,0-3.29-1.47-3.29-3.29s1.47-3.29,3.29-3.29c.91,0,1.73.37,2.33.96l1.49-1.49c-.98-.98-2.32-1.58-3.81-1.58-2.98,0-5.39,2.41-5.39,5.39s2.41,5.39,5.39,5.39,5.39-2.41,5.39-5.39c0-.3-.03-.59-.07-.88h-2.15Z"/>
  <path fill="#fff" d="M17.46,23.59c-4.17,0-7.54-3.38-7.54-7.54s3.38-7.54,7.54-7.54c2.07,0,3.94.83,5.3,2.18l1.76-1.76c-1.81-1.8-4.3-2.92-7.06-2.92-5.52,0-9.99,4.47-9.99,9.99s4.47,9.99,9.99,9.99c2.77,0,5.27-1.12,7.08-2.94l-1.71-1.71c-1.37,1.39-3.27,2.24-5.37,2.24Z"/>
</svg>
