<?xml version="1.0" encoding="UTF-8"?>
<!-- Country outline derived from Natural Earth public-domain geographic data. -->
<svg xmlns="http://www.w3.org/2000/svg" viewBox="0 0 1200 430" role="img" aria-labelledby="title desc">
  <title id="title">Карта России</title>
  <desc id="desc">Контурная карта для отображения географии судебной практики.</desc>
  <path d="M517.3,333.5L512.8,332.8L510.3,331.0L509.6,328.7L508.4,328.0L505.7,330.7L503.1,330.0L500.5,329.5L497.2,326.5L496.1,324.7L492.5,323.4L491.3,319.9L487.5,316.6L482.1,316.9L477.9,318.4L473.8,318.4L469.6,315.6L468.0,313.3L464.8,314.6L463.6,316.9L461.4,317.1L450.4,299.1L437.0,286.7L439.5,283.8L438.2,283.2L432.6,285.5L424.8,288.8L422.7,291.2L420.2,291.3L417.0,291.0L415.3,292.6L415.8,288.3L416.0,287.1L412.7,287.1L409.8,286.6L408.2,287.1L408.7,285.8L405.8,283.9L406.2,285.9L402.5,286.0L399.3,286.1L399.0,284.1L399.2,281.4L397.8,278.5L396.7,275.1L393.8,275.4L385.6,274.3L383.7,274.9L381.3,275.5L378.6,276.5L375.2,278.4L367.8,280.2L358.9,281.2L356.5,284.1L351.9,283.5L349.1,284.2L347.0,284.8L342.2,286.3L338.3,288.2L334.5,287.1L331.7,287.5L329.0,287.5L327.2,288.2L327.7,290.2L331.1,291.1L328.5,292.9L335.1,295.6L331.0,296.8L327.2,297.0L325.3,300.1L327.2,302.6L320.3,306.4L323.4,308.8L327.0,310.7L329.6,311.6L330.7,316.0L320.2,317.4L316.9,321.0L314.8,319.2L310.1,317.1L308.3,314.5L305.9,315.2L302.8,316.8L300.4,315.6L296.8,315.4L294.5,316.4L288.9,319.9L283.7,316.3L282.4,317.5L280.9,320.3L280.5,317.0L277.8,314.4L274.7,311.9L272.0,311.0L269.3,311.1L267.1,311.2L264.1,309.6L261.0,311.1L259.1,310.5L255.6,308.8L253.6,309.8L252.1,312.0L245.7,314.8L241.2,319.8L241.4,324.6L237.0,326.8L235.0,323.5L231.3,321.9L228.0,326.6L224.6,340.8L229.0,343.1L229.3,346.1L236.6,347.5L240.1,356.7L240.7,359.0L243.6,361.1L243.0,362.3L241.8,362.7L241.1,363.0L240.0,363.1L240.3,364.2L240.3,365.6L239.0,364.5L237.4,365.5L236.3,366.6L234.8,366.6L233.7,367.2L232.7,366.3L232.7,367.0L232.0,367.1L231.2,366.7L232.3,368.0L231.8,368.9L231.3,370.1L229.4,373.9L228.2,374.4L226.3,376.9L227.0,379.4L229.8,381.0L231.5,384.9L231.0,387.0L231.7,386.4L232.8,384.8L232.4,389.9L231.5,392.0L233.4,396.0L238.6,403.3L235.2,408.6L232.8,409.8L229.6,407.5L227.8,405.6L225.8,404.1L222.8,402.5L221.0,402.2L217.5,397.2L213.1,395.1L209.6,395.6L205.6,396.7L201.2,393.4L197.2,391.5L191.6,390.8L187.1,389.2L179.1,387.6L176.4,386.8L170.7,381.5L164.9,377.8L163.2,376.6L160.7,376.5L157.9,373.3L155.5,371.6L155.9,370.7L155.9,369.8L158.4,370.3L159.2,371.0L161.0,370.1L161.8,370.7L162.5,370.3L162.5,369.5L162.0,367.8L162.1,368.7L161.9,367.1L162.9,366.6L164.9,363.6L165.0,365.6L166.3,362.6L168.5,362.8L163.9,360.0L163.7,357.9L167.8,357.7L167.3,356.5L170.7,354.9L173.5,354.3L173.4,352.5L171.5,351.9L168.5,353.1L170.3,351.7L167.6,353.1L165.9,351.4L169.7,347.8L174.9,346.4L177.1,344.8L178.6,342.1L177.7,339.9L177.0,337.1L178.0,336.3L178.2,334.6L178.9,330.4L176.5,329.4L172.7,326.7L169.1,325.9L165.7,325.7L162.6,324.8L157.8,322.3L154.2,322.9L151.1,321.5L147.5,322.0L146.4,318.2L145.3,316.3L143.7,313.9L139.8,313.7L137.6,312.2L137.3,310.2L138.2,307.4L136.7,305.8L134.9,303.0L131.7,302.9L128.1,303.8L124.2,304.9L120.3,304.7L119.3,302.7L119.3,300.9L117.9,297.9L118.3,294.8L121.7,295.8L124.1,295.3L126.2,293.6L126.4,291.9L125.5,290.2L120.6,288.4L120.2,286.2L116.2,282.7L113.3,279.1L115.0,277.1L114.3,275.6L114.4,272.7L112.0,270.9L108.8,269.5L103.2,269.9L103.5,268.3L98.5,267.6L95.0,265.9L94.7,262.7L92.2,259.5L92.3,256.9L89.1,253.1L89.4,251.7L92.2,249.8L90.1,246.1L93.0,236.5L94.3,234.7L95.2,232.2L98.5,231.2L100.6,231.0L109.4,230.3L107.1,228.0L99.5,225.9L97.3,224.0L98.5,223.4L97.1,223.0L95.7,223.7L93.0,224.3L98.4,219.9L104.3,215.4L112.6,208.3L117.1,204.5L116.7,199.3L109.8,192.6L110.5,188.1L107.7,185.8L108.7,183.8L106.6,180.2L106.7,176.1L107.5,171.8L103.4,165.7L107.8,155.7L98.8,145.5L102.4,142.0L106.1,139.5L109.4,137.1L114.1,136.1L117.8,136.0L118.7,136.3L121.8,135.1L121.5,134.0L128.6,135.4L129.4,137.0L123.2,135.8L122.2,137.5L125.2,138.1L125.6,138.2L127.7,138.7L128.5,139.8L132.1,139.3L131.4,140.6L129.2,142.6L133.2,140.9L134.3,140.0L140.5,140.3L144.4,141.2L150.3,141.3L155.8,143.4L160.7,145.4L165.2,147.7L167.7,149.1L169.2,148.9L177.6,152.1L178.3,151.9L181.7,153.8L183.4,154.4L185.9,157.0L186.6,159.4L188.4,161.2L186.8,164.2L182.8,167.3L171.2,170.8L148.7,168.3L139.0,165.6L137.0,165.3L136.4,165.0L134.2,164.2L132.8,164.2L127.7,161.9L123.8,160.8L124.5,161.4L125.6,162.8L128.7,164.6L129.0,166.0L132.4,166.4L128.7,166.7L133.4,166.9L131.6,168.5L136.8,169.4L140.2,171.1L141.6,172.6L142.5,173.8L141.1,174.4L140.9,176.5L138.9,177.4L139.9,178.9L141.7,180.4L142.4,182.2L142.0,183.7L142.2,185.6L144.1,187.1L147.3,187.1L151.2,189.1L154.3,191.2L158.7,192.0L163.6,191.8L164.2,187.8L161.4,187.3L154.0,183.0L156.2,181.2L161.9,181.0L166.9,183.3L165.2,184.7L167.5,183.3L175.6,185.7L179.1,185.0L181.7,184.1L180.9,181.6L176.9,176.1L189.7,170.3L199.5,167.7L202.8,170.6L202.9,171.2L206.9,170.7L208.1,170.9L209.8,165.8L210.7,162.9L208.3,160.9L207.2,156.0L207.5,155.3L208.8,153.3L208.8,152.0L201.9,146.2L220.4,148.2L223.7,150.5L225.3,152.6L224.3,154.3L215.3,156.5L218.6,161.1L225.4,163.7L231.5,162.8L233.5,160.9L235.0,157.9L237.2,155.6L243.0,156.1L241.0,154.7L248.7,152.2L256.2,149.3L264.1,147.3L265.9,148.0L266.8,149.1L267.1,146.9L265.6,146.8L281.8,142.9L275.9,144.2L276.7,145.7L277.3,148.8L274.7,149.1L276.9,150.4L282.7,150.8L284.4,148.8L290.5,146.8L301.8,147.0L307.9,144.0L308.7,145.0L308.1,144.2L313.0,143.6L313.7,146.8L319.6,148.6L324.2,145.4L326.9,142.5L324.4,141.5L322.2,138.1L325.0,136.1L327.7,134.8L345.7,136.8L354.3,140.8L356.2,140.4L360.8,142.2L370.3,145.0L377.8,148.4L378.8,150.6L381.5,148.5L384.6,144.5L382.5,143.7L377.6,138.4L374.7,137.5L369.6,137.8L369.3,132.9L372.2,132.3L370.8,131.4L371.8,127.0L367.2,124.7L368.5,123.0L369.4,120.8L379.3,117.1L381.6,113.3L382.8,110.4L383.9,107.8L389.7,104.8L403.0,105.6L410.4,107.3L410.9,110.1L410.2,113.1L406.9,117.3L409.3,122.2L411.1,124.8L410.3,127.7L409.6,131.9L409.9,134.2L409.8,138.6L408.9,140.8L416.9,147.6L414.6,149.4L413.7,154.0L411.6,155.6L408.1,157.8L405.6,159.2L406.3,160.2L404.5,162.1L400.3,162.6L402.4,165.1L399.5,165.5L394.0,166.3L395.9,164.9L392.4,164.6L388.2,163.9L384.8,165.3L400.5,168.3L405.6,169.4L407.9,167.2L411.8,165.5L416.3,163.4L419.0,159.7L423.6,150.0L427.9,144.1L438.1,145.0L442.8,147.7L442.1,150.0L442.4,151.9L441.6,154.0L446.8,156.6L449.8,156.6L454.7,156.3L452.1,155.9L449.9,155.7L446.4,154.9L444.7,153.2L445.4,150.6L447.4,148.4L445.8,146.4L440.2,142.8L435.3,141.1L421.7,141.5L417.7,137.5L417.7,132.3L421.8,127.6L417.1,122.7L415.1,118.0L421.8,114.5L426.7,107.8L429.7,107.3L431.5,108.8L431.8,111.5L429.6,114.1L428.1,116.1L430.2,118.3L428.2,119.8L439.9,122.3L444.6,122.0L453.2,124.5L455.6,123.5L450.8,124.5L450.2,122.7L447.5,121.3L446.0,120.9L438.0,118.8L434.3,114.8L448.0,113.2L445.4,112.2L451.3,110.2L467.2,113.5L471.4,116.4L485.0,116.7L483.3,119.5L478.3,122.2L479.0,125.7L477.2,128.4L478.5,131.1L479.4,127.3L480.0,126.0L482.1,124.3L484.2,125.2L483.3,128.2L481.6,132.0L483.3,130.6L488.7,128.7L487.1,125.7L484.0,122.6L485.9,119.2L486.9,117.0L481.5,115.0L478.0,112.9L473.2,110.7L466.8,107.9L467.9,105.2L466.0,103.1L463.9,101.5L466.3,99.9L475.8,98.1L500.7,97.3L511.7,97.0L503.0,100.6L509.2,103.4L508.0,102.8L503.6,99.7L515.4,96.8L513.2,96.2L513.5,94.3L504.0,92.0L506.3,91.2L508.7,90.8L509.5,91.8L511.8,92.1L511.8,90.6L508.4,89.8L503.3,88.1L505.8,87.1L508.9,88.2L511.2,88.9L511.7,87.9L513.9,85.6L515.1,85.8L514.2,84.9L518.2,84.3L522.2,82.6L525.8,80.9L530.6,81.0L539.0,78.8L544.4,79.0L559.6,76.8L557.5,76.7L554.5,76.5L553.9,74.9L556.5,75.1L560.8,75.2L563.7,74.5L565.7,74.6L575.4,74.6L574.9,75.7L576.0,76.0L578.8,75.8L581.9,76.2L584.5,76.1L587.3,74.7L590.3,74.2L595.8,73.5L600.4,74.1L601.8,75.2L599.5,77.6L602.2,74.4L596.6,72.2L600.1,71.2L612.9,71.0L614.5,70.9L611.6,68.9L609.9,67.3L611.8,65.5L619.9,62.2L630.4,59.5L638.8,60.4L645.9,62.0L642.5,63.6L634.0,65.2L645.5,64.7L642.7,66.1L651.4,66.0L655.0,65.9L655.3,67.4L652.0,68.8L650.4,70.3L651.2,70.9L659.7,68.9L670.2,68.5L678.8,68.6L682.1,68.8L686.1,69.7L693.8,72.5L693.0,73.8L695.5,74.3L697.4,73.1L699.5,75.5L699.5,76.7L701.1,76.2L700.7,78.8L694.5,77.7L694.2,78.1L694.0,78.6L697.1,79.0L700.4,80.5L700.0,82.4L688.8,87.4L681.6,89.1L676.6,91.0L672.4,92.1L665.0,95.9L660.9,98.1L654.1,99.4L646.4,102.1L642.7,105.7L645.8,105.2L650.4,105.5L647.9,103.1L662.4,102.4L668.7,100.1L668.5,99.4L675.2,99.1L680.8,97.1L671.0,96.8L681.1,95.8L683.9,95.0L695.2,96.3L694.3,94.9L698.4,98.9L698.5,101.0L698.9,104.2L698.7,107.8L699.2,104.9L702.7,101.3L707.4,98.8L737.2,100.1L733.5,100.5L734.2,102.4L748.9,105.7L757.4,104.9L765.5,105.7L765.5,104.8L769.4,103.5L769.2,102.8L770.0,102.2L767.9,100.6L768.4,99.6L769.1,98.5L770.4,98.3L772.8,97.8L773.5,97.7L776.3,96.9L779.5,97.5L781.0,98.1L782.0,98.6L783.4,99.1L784.4,99.9L786.3,99.8L787.8,99.9L790.2,100.2L790.4,100.5L792.2,101.4L793.5,100.3L796.0,99.3L804.2,101.0L807.8,102.7L807.3,103.7L807.3,104.8L808.0,107.6L803.3,108.7L811.5,111.1L810.9,112.6L809.2,113.4L800.7,110.8L804.9,113.1L806.3,114.7L810.1,115.5L811.0,115.8L808.0,118.0L811.4,119.8L814.0,122.1L816.5,122.9L819.5,124.8L821.9,124.6L828.4,122.4L829.8,120.9L836.6,114.6L835.7,115.4L838.3,118.1L849.2,120.7L852.4,118.7L862.1,118.7L865.0,119.3L868.7,120.6L870.3,121.3L871.0,122.1L873.1,122.3L871.0,121.4L874.1,120.6L871.8,120.2L875.6,118.0L880.1,118.4L883.9,118.9L886.8,118.7L885.1,115.5L884.7,113.7L882.9,112.4L880.5,111.5L890.9,109.3L893.2,107.1L894.3,105.7L917.2,107.9L930.0,110.7L922.8,110.3L917.5,111.3L919.3,112.4L931.0,114.2L929.3,113.7L929.6,112.6L928.6,112.6L927.4,112.3L927.8,114.3L921.9,114.5L921.5,117.0L924.2,117.3L931.8,115.0L944.3,111.0L955.5,116.3L951.5,116.3L949.3,117.2L957.5,117.5L956.7,119.0L962.3,119.0L959.8,120.9L962.8,119.9L969.0,120.8L972.2,123.9L983.2,124.8L996.8,123.7L1015.5,123.6L1027.9,132.1L1026.9,133.6L1027.4,135.3L1034.5,136.8L1035.2,139.1L1035.6,141.5L1037.1,144.9L1035.8,147.4L1039.4,143.8L1038.5,141.0L1040.8,138.1L1043.8,136.8L1050.3,136.1L1057.7,136.0L1077.2,138.2L1085.1,136.3L1086.6,139.5L1095.2,143.2L1103.1,144.7L1104.2,144.6L1106.1,142.4L1105.8,140.8L1104.0,138.2L1102.7,135.8L1103.0,133.5L1115.6,133.5L1123.4,135.3L1121.8,134.1L1127.1,134.7L1139.5,134.9L1141.3,134.5L1146.1,136.0L1157.3,138.7L1162.2,139.8L1160.9,140.2L1167.3,142.2L1169.3,180.8L1159.7,185.0L1155.6,184.5L1152.3,183.2L1151.8,182.0L1145.4,180.8L1145.2,181.3L1150.5,182.5L1146.1,182.6L1142.3,182.0L1136.6,183.5L1138.8,183.4L1143.7,183.3L1142.4,185.6L1145.8,184.5L1150.0,184.0L1151.4,186.0L1157.4,188.1L1158.9,189.3L1158.7,191.3L1160.9,193.0L1161.0,194.7L1159.1,194.7L1159.3,195.1L1161.0,195.9L1161.3,194.9L1163.9,198.3L1165.8,200.1L1166.8,202.5L1166.9,204.1L1164.0,206.8L1157.7,205.5L1151.1,203.2L1151.1,202.4L1148.9,201.9L1148.8,204.2L1146.8,205.0L1143.7,207.1L1136.4,209.6L1132.6,211.1L1129.5,212.0L1128.3,212.3L1124.3,212.6L1122.5,214.8L1119.2,215.3L1118.8,217.3L1116.4,218.4L1115.9,219.7L1114.0,220.6L1113.1,221.1L1110.7,222.0L1109.1,222.0L1106.8,224.0L1103.7,225.3L1103.9,226.2L1099.9,229.6L1098.6,227.0L1096.4,225.2L1093.5,223.8L1088.8,223.7L1082.1,225.1L1079.9,225.4L1078.1,226.3L1071.6,231.1L1072.7,226.7L1073.1,224.9L1069.9,226.1L1065.1,228.5L1063.8,228.3L1064.7,230.0L1062.1,230.5L1059.1,229.1L1057.0,230.2L1055.7,229.2L1054.6,229.7L1052.8,230.7L1051.1,233.5L1051.8,236.3L1050.7,236.2L1051.5,238.2L1049.5,237.5L1049.8,238.8L1047.7,240.1L1045.4,242.3L1045.3,251.3L1047.5,248.9L1052.0,251.4L1048.0,255.8L1050.0,260.8L1051.5,263.2L1052.1,265.9L1048.8,267.5L1047.9,264.5L1047.4,263.2L1046.3,264.7L1043.4,266.8L1041.0,271.6L1043.4,278.6L1042.5,280.6L1039.6,282.1L1031.8,283.2L1027.3,290.1L1027.5,291.9L1027.4,292.6L1027.8,294.2L1028.4,295.6L1026.4,294.4L1021.3,295.9L1017.7,296.3L1017.8,297.2L1018.2,298.3L1018.3,299.9L1017.9,301.0L1017.5,302.3L1017.8,303.7L1016.5,305.1L1015.1,307.9L1012.8,310.2L1008.2,314.3L1005.4,315.6L1003.7,312.7L1003.6,310.1L1002.5,301.5L1001.9,300.3L999.3,287.1L997.7,268.2L999.5,262.2L1001.6,259.8L1004.6,257.5L1006.8,252.4L1011.1,249.8L1015.8,248.4L1019.8,245.6L1023.0,244.0L1025.2,241.4L1026.5,238.9L1031.8,233.8L1035.9,231.7L1042.2,226.8L1045.4,224.0L1048.8,222.2L1051.9,222.2L1054.9,220.9L1055.0,218.0L1055.1,215.8L1057.2,212.0L1057.4,209.6L1058.2,207.2L1064.5,206.3L1067.0,205.9L1060.4,203.7L1053.0,205.0L1051.6,206.6L1050.2,208.1L1050.6,210.0L1049.5,212.1L1051.2,213.8L1049.1,214.2L1048.0,213.0L1044.8,213.9L1043.3,215.4L1041.5,216.4L1039.6,218.0L1037.3,219.3L1034.3,221.9L1032.1,222.5L1030.2,223.6L1030.2,222.2L1030.9,220.7L1028.8,219.9L1027.2,220.5L1028.3,218.3L1027.1,217.0L1028.7,216.1L1029.6,214.9L1030.7,212.9L1031.0,211.2L1028.7,211.7L1026.4,213.0L1025.1,212.3L1024.2,211.6L1019.4,211.8L1014.7,212.7L1009.0,213.1L1004.7,215.3L1004.5,217.8L999.5,221.2L997.8,223.1L996.2,224.4L991.7,226.7L989.3,229.7L989.1,230.6L988.5,233.5L986.4,234.1L988.6,234.4L989.1,233.8L992.8,234.3L994.1,236.3L991.6,237.2L988.3,237.3L985.2,238.2L982.7,236.9L981.2,238.2L978.1,240.0L974.3,238.5L969.2,240.5L965.9,238.8L968.7,237.5L973.7,236.8L969.8,235.9L968.1,233.8L964.7,233.6L962.9,234.7L961.2,233.7L953.1,231.7L951.3,233.8L949.9,234.6L949.0,235.6L950.2,236.6L946.0,235.3L940.3,236.2L937.5,236.0L932.4,234.6L930.4,237.2L928.6,235.7L926.0,235.1L918.3,235.4L910.6,235.8L898.0,242.7L890.3,250.1L886.3,252.0L881.8,255.6L878.9,258.1L876.6,260.4L874.9,261.0L873.5,263.0L873.0,264.0L870.7,266.5L868.0,268.2L864.5,270.4L861.5,272.0L858.8,274.9L853.8,277.6L856.3,281.3L863.2,280.6L864.4,281.3L863.8,282.9L864.1,284.8L863.1,287.7L865.2,288.4L867.6,286.7L868.0,284.4L869.7,285.1L868.7,285.7L868.6,286.7L870.3,288.2L869.5,289.7L867.0,291.0L875.4,287.8L874.5,291.1L877.5,288.8L877.8,285.3L884.7,284.2L887.1,286.0L889.3,289.1L894.5,292.1L894.5,292.8L896.6,294.6L896.3,296.0L893.8,296.3L893.4,296.7L895.0,297.9L896.0,300.1L896.4,303.9L897.8,304.7L896.2,306.4L894.8,309.2L892.4,311.5L891.7,313.3L891.5,315.8L890.2,318.3L890.4,321.2L890.7,324.4L889.9,326.4L890.7,329.4L889.3,332.5L889.4,333.1L888.3,335.0L889.2,335.0L888.5,336.9L887.4,340.8L883.7,344.6L880.7,348.6L879.5,351.3L875.4,356.7L872.3,362.9L867.9,368.1L863.4,373.1L862.4,374.6L860.9,375.9L860.0,377.7L857.6,379.4L856.0,381.8L855.0,383.9L854.7,384.9L853.2,386.1L852.9,386.7L852.3,387.9L848.8,390.3L846.0,391.9L843.6,393.9L841.4,394.3L838.9,395.2L837.5,394.9L835.8,395.0L834.5,394.1L832.9,393.4L832.2,393.8L832.5,391.5L832.6,390.1L830.3,391.7L829.6,390.8L829.8,389.8L828.4,390.6L827.8,391.3L826.5,393.3L825.7,394.4L824.8,396.0L824.6,396.9L823.8,396.0L822.7,396.3L820.9,395.8L822.1,397.4L821.2,399.0L819.8,397.5L821.1,394.5L823.6,392.8L824.3,390.7L824.4,387.3L824.5,383.6L823.1,374.9L825.5,373.9L828.6,370.6L837.4,373.0L838.5,368.7L840.6,367.2L841.0,365.0L842.1,363.7L843.2,361.9L843.7,360.0L844.4,357.6L845.7,353.5L846.0,350.9L848.6,349.3L848.9,345.7L848.3,341.7L843.4,342.1L841.1,343.8L837.5,344.0L835.0,345.1L834.2,347.1L830.8,347.7L827.4,348.0L822.8,347.6L821.4,342.5L821.0,339.9L820.7,336.4L815.8,335.0L813.3,332.5L810.8,331.5L807.2,330.6L806.3,329.6L801.5,329.3L798.5,327.5L797.2,322.6L797.3,320.0L795.7,316.8L794.6,312.9L793.4,312.8L793.1,310.7L790.8,306.5L790.4,303.8L788.8,301.0L787.9,299.3L785.8,297.7L784.1,296.2L778.6,295.3L775.6,293.5L772.6,292.0L769.8,291.6L762.7,292.2L755.2,293.6L749.5,295.8L746.3,298.5L747.0,300.4L750.0,302.1L750.5,304.4L750.1,306.0L748.6,307.5L745.6,310.2L744.4,312.8L743.4,314.4L741.6,317.5L740.2,319.7L739.3,321.5L740.6,322.2L739.7,325.3L735.0,326.3L732.5,328.4L729.5,330.1L714.6,326.7L704.7,322.9L697.1,327.2L692.6,330.1L681.2,333.1L673.2,332.9L667.5,332.0L660.3,329.3L659.9,326.2L653.8,325.0L647.6,322.7L640.9,321.0L634.5,322.7L626.7,323.6L619.6,319.5L618.9,315.3L617.0,311.9L611.1,310.6L597.9,306.2L594.0,308.2L589.2,312.4L588.9,317.0L591.5,320.8L587.5,325.9L582.9,327.4L577.9,326.6L574.7,326.0L571.3,326.3L564.7,324.5L557.8,319.9L552.2,318.6L549.0,317.6L542.5,321.1L537.3,323.5L531.8,326.1L530.6,328.2L526.8,330.3L523.5,330.8L519.4,331.7L517.3,333.5ZM56.7,283.6L49.3,283.5L36.8,283.0L34.3,282.7L36.3,280.8L36.4,280.6L36.6,280.2L36.6,278.7L36.8,277.9L37.6,277.9L40.5,277.7L44.1,274.8L43.8,275.1L43.4,275.4L43.2,275.7L42.0,277.0L40.8,277.8L41.2,278.1L44.4,278.4L44.7,278.4L45.5,278.2L45.5,276.2L45.4,275.6L45.7,275.5L46.1,275.4L46.6,274.7L48.4,275.6L50.0,276.3L50.8,276.7L51.4,276.7L51.9,277.2L53.2,276.8L55.4,276.9L55.8,277.9L56.5,278.1L57.1,278.6L57.1,279.6L56.5,280.0L56.4,280.2L56.2,280.6L56.0,282.3L56.7,283.6ZM133.6,362.8L135.8,362.5L138.6,363.3L140.2,364.2L141.9,366.0L148.2,370.4L148.9,369.4L150.0,370.0L152.3,369.1L153.1,369.3L154.7,369.6L153.8,370.3L153.4,371.1L152.3,373.1L150.7,373.1L148.8,372.9L146.1,373.1L145.8,373.8L144.5,374.5L143.0,375.1L141.6,375.3L139.5,376.2L138.2,377.9L137.3,378.7L135.1,379.3L133.2,378.4L131.8,377.5L133.2,377.2L132.9,376.2L133.4,374.9L133.2,373.0L130.9,372.0L129.5,370.9L126.2,370.5L126.9,368.5L127.8,368.2L130.3,366.5L130.8,366.3L132.7,365.5L133.7,365.2L134.5,364.7L133.7,364.3L133.7,363.2L133.6,362.8ZM-1379.1,180.7L-1375.7,143.3L-1373.4,144.8L-1370.0,146.2L-1366.3,148.2L-1364.7,149.8L-1367.5,147.2L-1362.3,150.6L-1359.4,151.2L-1355.7,153.0L-1351.4,153.7L-1353.2,155.5L-1348.4,156.3L-1349.5,154.5L-1345.3,157.0L-1345.7,158.8L-1344.2,157.5L-1342.6,159.7L-1342.7,162.1L-1341.6,164.6L-1342.3,166.1L-1339.7,168.5L-1338.2,167.4L-1336.7,168.8L-1335.0,168.4L-1337.3,166.6L-1336.2,164.0L-1337.9,161.9L-1333.4,161.3L-1330.6,161.8L-1331.6,162.3L-1330.2,163.7L-1330.1,162.3L-1325.0,162.8L-1321.9,162.5L-1317.7,164.6L-1312.4,168.3L-1311.3,169.1L-1309.2,170.4L-1306.1,170.5L-1310.7,172.4L-1312.0,174.8L-1318.4,173.7L-1315.5,175.8L-1322.4,176.2L-1324.5,175.0L-1327.0,175.4L-1324.3,177.3L-1326.0,178.9L-1323.8,179.3L-1324.0,181.5L-1330.7,183.6L-1329.8,184.8L-1326.8,185.4L-1327.5,186.7L-1328.2,187.5L-1332.1,187.5L-1332.0,185.3L-1335.4,187.3L-1339.6,184.6L-1343.3,182.7L-1347.1,182.7L-1349.4,180.5L-1355.2,176.2L-1368.4,175.6L-1370.2,173.3L-1369.3,170.7L-1368.5,168.5L-1371.2,170.3L-1374.0,168.9L-1376.2,170.4L-1377.3,173.7L-1375.6,178.4L-1379.1,180.7ZM1170.0,118.6L1170.0,123.8L1169.1,124.3L1167.6,124.9L1165.1,124.9L1163.8,124.9L1161.5,125.6L1161.4,125.3L1161.1,124.8L1160.9,124.4L1160.7,124.1L1160.6,123.9L1160.2,123.3L1160.3,123.1L1160.6,122.8L1161.7,122.1L1162.0,121.7L1161.9,121.6L1161.9,121.7L1161.8,121.7L1162.2,121.4L1165.7,120.0L1166.5,119.6L1167.9,119.3L1168.3,119.1L1168.4,119.0L1168.8,119.0L1169.0,118.9L1168.9,118.7L1170.0,118.6ZM-1379.1,123.8L-1379.1,118.5L-1378.4,118.4L-1377.6,118.2L-1377.2,118.1L-1376.9,118.2L-1376.3,118.1L-1374.3,118.4L-1374.0,118.3L-1373.4,118.1L-1370.1,118.2L-1367.2,118.7L-1367.1,118.8L-1367.3,118.7L-1366.4,119.1L-1366.0,119.0L-1364.9,119.4L-1365.3,119.6L-1365.1,119.7L-1365.1,119.7L-1364.7,119.9L-1362.9,120.8L-1362.7,120.8L-1362.5,120.9L-1361.7,120.9L-1361.5,120.9L-1361.4,121.1L-1361.1,121.3L-1361.0,121.6L-1361.4,122.0L-1362.3,122.6L-1363.2,122.8L-1364.0,123.2L-1366.4,123.3L-1369.1,123.7L-1371.8,124.2L-1374.4,124.6L-1374.6,124.4L-1375.5,124.5L-1378.0,123.9L-1378.4,123.7L-1379.1,123.8ZM829.6,392.6L829.6,392.7L829.5,392.9L829.0,393.2L828.4,392.9L828.5,392.7L828.5,392.6L828.6,392.6L828.6,392.4L828.7,392.3L829.0,392.4L829.1,392.4L829.1,392.2L829.4,392.4L829.6,392.6ZM904.7,284.2L905.4,284.1L906.4,283.6L907.2,288.1L907.3,288.8L908.5,290.9L908.9,291.8L908.7,292.9L910.3,296.4L909.6,302.8L910.1,300.7L909.6,301.3L909.1,304.3L909.1,306.3L909.8,307.9L909.9,310.9L911.4,312.6L911.4,313.5L913.6,322.5L917.8,334.4L920.5,338.6L917.4,334.6L911.3,331.6L910.4,332.1L907.8,336.3L904.7,345.6L908.2,352.3L909.2,355.8L910.0,357.2L909.3,356.3L911.8,358.0L912.1,361.1L911.1,363.7L910.4,359.4L909.3,358.3L905.6,357.0L902.4,363.4L900.1,360.9L900.8,351.6L901.1,347.4L900.0,338.1L901.1,334.7L902.0,328.1L902.2,324.7L901.7,318.0L902.2,313.4L900.5,310.2L899.6,308.6L898.6,303.8L899.7,300.9L900.0,297.7L899.8,295.0L901.0,292.3L903.2,293.2L904.7,291.4L905.7,290.4L905.2,289.9L903.1,284.2L904.7,284.2ZM98.2,223.6L97.8,223.8L97.7,223.5L97.8,223.2L98.0,223.2L98.1,223.4L98.2,223.6ZM-1324.1,183.1L-1322.7,183.8L-1324.4,184.1L-1326.0,184.2L-1326.9,184.4L-1326.5,183.7L-1325.9,183.1L-1325.3,182.9L-1324.1,183.1ZM392.0,166.4L391.7,166.4L391.4,166.5L391.7,166.5L391.7,166.7L391.5,166.9L390.8,166.9L390.3,167.0L390.3,167.2L390.1,167.1L389.9,167.0L387.9,166.1L387.9,165.9L388.0,165.9L388.1,165.7L387.9,165.4L387.0,164.4L386.7,164.3L386.1,164.5L385.9,164.6L385.1,164.3L385.1,164.0L386.0,164.1L387.0,164.0L387.6,164.5L388.1,164.9L388.5,165.1L388.6,165.0L388.0,164.6L387.9,164.4L388.8,164.4L389.4,164.4L389.4,164.6L389.5,164.7L390.3,164.7L390.4,164.8L390.6,165.0L391.2,164.9L391.7,165.1L391.7,165.5L391.7,165.6L391.7,165.7L391.5,165.7L391.3,165.7L391.9,166.3L392.0,166.4ZM258.7,147.8L259.8,148.0L257.3,148.5L256.1,148.7L255.7,148.8L255.4,148.9L255.2,148.8L255.3,148.6L257.8,147.7L258.7,147.8ZM287.5,143.4L288.3,143.6L287.5,143.6L286.5,143.8L286.7,143.6L287.5,143.4ZM282.4,142.8L282.6,142.9L282.8,143.1L282.5,143.3L282.1,143.4L281.9,143.3L282.0,143.2L282.3,142.9L282.4,142.8ZM1038.9,142.7L1039.1,143.6L1038.5,144.0L1038.5,143.7L1038.8,143.2L1038.5,142.7L1037.6,142.3L1036.4,142.0L1036.4,141.9L1036.5,141.8L1036.4,141.6L1036.3,141.3L1036.4,140.8L1036.4,140.7L1036.4,140.6L1036.5,140.3L1036.7,139.8L1036.0,139.2L1036.0,138.7L1036.3,138.3L1037.3,137.9L1037.4,137.8L1037.7,137.7L1038.0,137.6L1038.2,138.1L1038.2,138.3L1038.2,138.4L1038.2,138.5L1037.6,138.8L1037.6,139.1L1038.0,139.4L1038.0,139.7L1038.1,140.1L1037.7,140.6L1038.1,141.0L1038.2,141.2L1038.2,141.8L1038.4,142.1L1038.9,142.7ZM1039.9,137.5L1039.8,137.7L1039.8,138.0L1039.9,138.3L1039.8,138.6L1039.3,138.8L1038.1,139.0L1038.0,138.9L1038.4,138.7L1038.5,138.5L1038.5,137.9L1038.3,137.3L1038.7,137.1L1038.8,137.0L1038.8,136.8L1039.2,136.8L1039.6,137.0L1039.9,137.4L1039.9,137.5ZM400.7,100.8L400.5,101.0L400.7,101.1L400.6,101.3L400.4,101.3L400.1,101.5L399.9,101.6L399.5,101.7L399.2,101.7L399.3,101.5L399.2,101.2L399.7,100.8L400.0,100.5L400.6,100.6L400.7,100.8ZM259.5,116.0L264.7,112.9L266.5,112.8L267.1,111.7L268.4,110.8L268.8,109.5L271.3,108.4L271.5,107.9L267.0,106.8L273.5,105.2L272.7,103.9L274.7,102.2L287.1,101.2L293.3,103.6L291.8,105.1L290.1,106.6L289.5,108.4L288.7,109.5L288.3,110.4L287.3,113.5L286.5,114.7L290.2,118.4L298.2,124.2L302.3,126.3L299.4,126.8L300.1,127.2L296.6,127.3L293.9,126.2L293.9,127.1L296.2,127.9L292.6,126.9L291.5,127.6L290.5,127.2L288.1,126.2L286.6,126.9L284.7,127.2L281.6,125.5L282.3,127.0L278.4,126.2L274.7,125.2L274.7,124.8L274.3,123.0L278.3,122.6L277.9,122.2L277.2,122.0L274.8,121.8L277.0,119.2L273.1,119.0L271.1,118.9L269.8,119.8L268.2,118.5L266.0,119.0L262.5,119.3L259.9,117.0L259.5,116.0ZM797.6,99.5L797.8,99.3L799.6,99.3L802.2,99.8L800.2,99.8L799.1,99.7L797.6,99.5ZM510.7,97.8L510.1,98.2L510.0,98.4L510.0,98.6L509.8,98.7L507.7,98.5L508.0,98.3L509.3,98.1L510.8,97.7L510.7,97.8ZM583.4,74.8L584.7,74.6L584.5,74.9L582.6,75.6L580.2,75.7L580.5,75.4L583.4,74.8ZM569.4,74.0L569.5,74.1L568.9,74.2L568.2,74.0L568.6,73.7L568.9,73.5L569.4,73.9L569.4,74.0ZM568.1,73.0L567.3,73.2L567.2,73.5L567.5,73.6L566.6,73.9L565.2,73.7L564.8,73.8L564.4,73.8L564.0,73.6L564.5,73.4L566.7,73.6L566.5,73.3L566.3,73.2L566.3,73.2L567.4,73.0L567.5,72.9L567.6,72.8L567.9,73.0L568.1,73.0ZM579.3,72.4L580.6,72.4L580.4,72.5L580.2,72.6L580.2,72.8L579.9,72.8L579.5,72.6L577.9,72.4L579.3,72.4ZM581.6,73.2L582.6,73.4L581.9,73.5L580.6,74.0L580.4,73.9L580.3,73.7L580.3,73.5L580.5,73.2L580.5,73.1L581.0,72.7L581.3,72.5L581.3,72.2L581.9,72.4L582.5,72.4L582.6,72.6L582.8,72.7L582.2,72.9L581.3,73.0L581.0,73.4L581.0,73.6L581.6,73.2ZM562.2,69.9L563.6,70.1L560.3,69.9L562.2,69.9ZM570.0,69.2L570.5,69.3L569.7,69.5L567.1,69.5L566.8,69.4L567.2,69.2L568.5,69.1L568.7,69.0L569.0,68.8L569.1,68.9L569.3,68.9L570.0,69.2ZM299.0,88.2L294.9,87.6L296.7,85.7L295.0,84.9L290.2,84.4L292.7,83.3L295.2,84.1L300.1,81.6L303.4,81.0L306.3,78.7L315.4,76.7L322.8,75.5L324.6,75.7L326.7,74.1L332.5,72.7L338.1,73.8L342.8,73.3L349.1,72.7L353.9,71.3L360.0,70.1L361.5,68.8L367.3,67.0L381.0,66.8L384.1,68.8L379.9,71.8L368.5,75.1L348.9,78.6L345.9,78.7L334.6,81.0L331.7,82.6L330.1,82.1L325.6,85.0L323.5,84.7L325.0,86.1L319.2,87.7L319.3,88.2L314.3,87.8L314.4,89.4L309.4,89.7L310.9,91.9L310.2,93.0L309.8,93.4L307.4,93.9L304.2,94.3L305.2,95.7L303.5,97.3L302.6,97.4L301.5,99.2L300.8,99.7L297.4,101.0L292.3,101.3L290.4,101.1L280.0,100.2L286.9,97.5L280.7,98.3L277.0,98.1L278.4,96.2L282.6,94.2L289.4,93.3L286.7,91.9L289.3,91.7L292.7,90.3L289.9,89.7L291.0,88.4L299.0,88.2ZM560.1,55.0L559.4,55.0L558.4,54.9L558.2,54.6L558.9,54.5L559.6,54.5L560.1,54.6L560.5,54.8L560.1,55.0ZM550.1,45.8L552.0,46.1L548.6,45.7L548.2,45.6L550.1,45.8ZM553.9,42.8L553.3,43.0L552.7,43.1L551.6,43.1L551.1,42.9L551.1,42.9L551.1,42.8L552.5,42.6L553.9,42.8ZM549.1,42.5L550.1,42.7L549.0,42.9L548.8,42.9L549.1,43.1L545.4,42.8L547.1,42.9L547.7,42.8L548.5,42.5L549.1,42.5ZM542.4,42.2L543.1,42.4L542.4,42.3L542.4,42.2L541.2,41.9L538.4,41.4L542.4,42.2ZM605.0,40.3L605.6,40.3L604.9,40.5L603.4,41.0L602.9,41.0L603.0,40.9L603.1,40.6L603.1,40.4L603.2,40.2L603.7,40.1L604.1,40.2L605.0,40.3ZM563.4,36.9L562.8,37.1L562.3,37.2L562.3,37.2L562.1,37.4L560.8,37.6L560.7,37.2L560.9,37.1L562.8,36.8L563.4,36.9ZM930.5,387.6L930.8,387.6L930.9,387.8L930.7,388.0L930.3,388.3L930.2,388.3L930.1,388.1L930.0,388.0L930.2,387.6L930.5,387.6ZM935.5,384.5L935.7,384.7L935.9,384.6L935.8,385.0L935.6,385.1L935.4,385.2L935.2,385.3L935.1,385.3L934.9,385.4L934.8,385.5L934.6,385.6L934.4,385.7L934.3,385.8L934.1,385.9L933.9,385.9L933.6,385.8L933.5,385.6L933.6,385.2L933.5,385.0L934.0,384.9L934.9,384.4L935.1,384.4L935.3,384.4L935.5,384.5ZM932.6,379.1L933.1,379.4L932.9,379.7L932.2,379.6L931.6,380.4L930.7,380.6L929.9,380.9L929.7,381.2L928.7,382.1L928.4,383.0L927.8,383.5L927.3,384.1L926.3,384.8L926.0,386.4L926.1,385.9L925.2,385.1L925.1,384.7L925.6,384.2L927.0,383.0L927.5,382.4L927.8,381.6L928.3,381.0L929.1,380.4L929.3,379.9L929.6,379.2L930.6,378.3L931.8,379.1L932.6,379.1ZM949.1,369.6L949.0,370.5L947.4,370.6L944.9,371.7L943.2,373.6L942.0,373.9L941.3,373.5L940.9,374.3L940.4,374.9L938.7,376.6L937.1,377.7L936.1,379.0L935.4,378.9L935.7,378.2L935.8,377.3L936.2,377.7L936.4,377.1L937.2,377.0L937.5,375.8L937.7,375.4L938.9,374.5L939.8,373.5L939.9,372.8L940.4,372.8L941.5,372.0L942.7,371.3L942.5,370.5L942.8,369.6L943.2,369.9L943.5,370.7L943.9,371.1L946.6,370.0L947.2,369.4L947.7,369.0L948.0,368.7L949.5,369.1L949.1,369.6ZM959.9,361.9L961.0,361.9L961.2,362.1L960.7,362.6L960.2,363.2L959.6,363.5L959.2,363.9L958.8,364.4L958.9,364.7L958.6,364.8L958.4,365.1L957.8,365.5L957.5,365.7L957.2,365.7L957.0,365.9L956.5,366.3L955.5,367.3L954.8,367.7L954.6,367.4L954.6,367.7L954.5,367.8L954.2,368.0L953.6,367.8L953.8,367.6L954.1,367.1L954.3,366.9L954.4,366.7L954.7,366.2L954.7,366.0L954.8,365.9L954.9,365.9L955.2,365.4L955.8,365.3L956.5,364.7L957.0,364.0L958.2,363.0L958.5,363.1L958.9,362.9L959.0,362.8L958.9,362.4L959.3,362.1L959.9,361.9ZM973.2,353.1L973.5,352.9L973.8,353.0L973.0,353.8L972.7,354.3L972.3,354.6L972.2,354.8L972.1,354.9L971.7,355.4L971.4,355.7L971.1,355.9L970.7,356.4L970.1,356.5L969.9,356.4L969.7,356.2L969.7,356.0L969.7,355.8L970.6,355.7L971.2,355.0L972.1,354.2L973.3,352.6L973.3,352.8L973.2,353.0L973.2,353.1ZM975.3,350.7L975.5,351.0L975.5,351.5L974.8,351.3L974.7,350.8L974.9,350.6L975.3,350.7ZM979.0,346.7L979.3,346.7L979.3,347.0L979.2,347.4L979.0,347.6L978.8,347.6L978.6,347.7L978.6,347.3L978.7,346.9L979.0,346.7ZM980.9,344.0L980.9,344.2L980.8,344.4L980.5,344.3L980.1,344.1L980.0,343.6L980.5,343.6L980.9,344.0ZM987.4,335.9L987.5,336.3L987.2,336.7L986.3,337.3L986.3,337.5L986.2,337.7L985.9,337.7L985.7,337.6L985.9,337.2L986.5,336.9L986.6,336.6L986.6,336.3L986.7,336.1L987.2,335.9L987.4,335.9ZM985.8,335.5L986.0,335.6L985.9,335.8L985.6,335.8L985.4,335.8L985.2,335.7L985.2,335.4L985.4,335.3L985.8,335.5ZM989.9,333.6L990.1,333.9L990.0,334.1L989.7,334.3L989.4,334.3L989.1,333.8L989.0,333.5L989.1,333.5L989.7,333.6L989.9,333.6ZM989.1,327.3L989.4,327.6L989.2,328.0L988.8,328.1L988.6,327.8L988.6,327.5L988.9,327.3L989.1,327.3ZM1000.9,319.4L1001.2,319.7L1001.2,319.9L1001.1,320.2L1001.1,320.5L1000.9,320.7L1000.8,320.8L1000.7,320.8L1000.5,320.8L1000.4,321.0L1000.3,321.2L1000.4,321.5L1000.2,321.6L1000.0,321.8L999.6,322.5L999.3,323.0L999.1,323.1L998.8,323.3L998.5,323.7L997.4,323.8L996.5,324.2L996.0,325.2L995.8,325.6L995.7,325.3L995.6,325.1L995.1,324.9L994.7,325.0L994.5,324.9L994.5,324.6L994.6,324.4L994.8,324.2L994.8,323.9L994.7,323.6L994.7,323.3L994.3,323.0L994.4,322.7L994.9,322.6L995.4,322.6L995.9,322.1L996.4,321.9L996.9,321.9L997.0,321.7L997.1,321.7L997.5,321.8L997.9,321.6L998.4,321.0L998.5,320.8L998.6,320.5L999.0,319.7L999.1,319.2L999.3,318.9L1000.1,318.2L1000.6,318.0L1000.9,318.3L1000.9,319.0L1000.9,319.2L1000.9,319.4ZM1003.3,317.1L1003.5,317.5L1003.6,317.9L1003.7,318.2L1003.5,318.5L1003.3,318.8L1002.9,319.2L1002.8,319.5L1002.3,319.4L1002.0,319.4L1001.7,319.2L1001.3,318.9L1001.3,318.4L1001.5,318.0L1001.9,317.9L1002.4,317.4L1002.9,317.2L1003.3,317.1ZM997.0,317.7L996.5,317.6L996.1,317.0L996.8,316.6L997.7,317.1L997.6,317.8L997.0,317.7ZM904.8,284.2L905.1,284.1L905.1,284.2L904.8,284.2ZM871.3,282.7L871.6,282.3L872.0,282.2L872.1,282.5L871.9,282.7L871.5,282.9L871.3,283.4L870.7,283.6L870.6,283.4L870.6,283.3L870.8,283.3L871.3,282.8L871.3,282.7ZM869.9,281.6L870.0,281.9L870.1,282.2L870.1,282.3L870.1,282.4L869.9,282.6L869.8,282.8L870.0,283.1L869.9,283.2L869.6,283.3L869.6,283.0L869.5,282.3L869.4,282.2L869.4,282.1L869.6,281.9L869.8,281.6L869.9,281.6ZM1085.5,281.8L1085.8,282.0L1085.8,282.2L1085.6,282.2L1084.9,281.7L1083.8,280.9L1083.4,280.8L1083.2,280.7L1082.9,280.4L1081.1,279.2L1081.3,278.7L1081.9,279.0L1081.9,279.3L1082.2,279.5L1082.6,279.5L1083.1,279.7L1083.3,280.1L1083.5,280.3L1083.8,280.4L1084.1,280.7L1084.4,280.8L1084.6,281.0L1084.9,281.3L1085.5,281.8ZM866.7,276.3L866.8,276.6L866.2,277.3L866.0,277.5L866.1,277.8L866.1,278.1L865.7,278.2L865.0,278.2L865.0,278.0L865.0,277.9L864.4,278.1L864.2,278.0L864.1,278.1L863.8,278.1L863.7,278.2L863.8,278.5L863.5,278.5L863.2,278.4L863.3,278.2L863.3,278.0L863.4,277.8L863.7,277.7L864.1,277.4L864.3,277.2L865.4,276.6L866.2,276.6L866.4,276.3L866.7,276.3ZM872.9,276.9L873.9,276.9L873.9,277.3L873.4,277.4L872.9,278.1L872.7,278.1L872.6,278.5L872.5,278.6L872.6,279.0L872.5,279.4L871.6,280.0L871.5,280.2L871.0,280.7L870.8,280.7L870.8,280.9L870.7,281.0L870.5,281.1L870.2,280.8L869.7,279.9L869.5,279.7L869.4,279.5L869.2,279.0L869.0,278.6L868.3,278.9L867.4,279.5L867.2,279.4L867.3,279.1L867.4,278.7L867.6,278.2L868.1,277.8L868.3,277.4L868.7,277.3L868.9,277.0L869.1,276.5L869.2,276.2L869.5,275.6L870.1,275.6L870.5,276.0L870.8,276.1L871.1,276.1L871.8,276.1L872.1,276.0L872.3,276.2L872.4,276.4L872.4,276.8L871.8,277.4L872.9,276.9ZM1075.6,279.8L1075.5,280.2L1075.6,280.5L1075.3,280.2L1075.1,280.2L1074.8,279.9L1074.3,279.4L1074.2,279.1L1073.7,279.1L1073.4,279.0L1072.9,278.5L1072.9,278.3L1072.5,278.1L1072.3,278.0L1072.2,277.7L1072.0,277.5L1071.4,276.8L1071.5,276.5L1071.0,275.8L1070.7,275.5L1070.6,275.2L1069.5,274.9L1069.1,274.6L1069.9,274.5L1070.2,274.3L1070.3,274.0L1070.6,274.0L1072.6,274.3L1072.7,274.4L1072.8,274.5L1072.6,274.9L1072.6,275.4L1072.6,275.9L1072.8,276.2L1073.0,276.4L1073.4,276.9L1073.5,277.1L1073.7,277.4L1073.8,277.5L1074.3,278.0L1074.9,278.3L1075.0,278.5L1075.5,279.1L1075.4,279.3L1075.5,279.7L1075.6,279.8ZM962.7,237.8L963.1,238.2L962.7,238.3L962.2,238.8L961.5,239.0L960.9,239.0L961.2,238.6L961.8,238.3L962.3,238.1L962.5,237.8L962.6,237.7L962.7,237.8ZM1061.7,239.2L1061.6,239.6L1061.6,239.8L1061.2,240.3L1060.0,240.3L1059.2,240.5L1058.8,240.9L1058.3,240.8L1058.2,240.8L1058.0,240.7L1057.8,240.7L1057.6,241.1L1057.0,241.4L1056.4,241.8L1055.9,241.9L1055.2,242.5L1053.8,243.3L1053.3,243.9L1053.0,244.2L1052.8,243.8L1052.6,243.3L1053.6,243.1L1054.1,242.4L1054.4,241.8L1054.9,241.2L1055.1,240.6L1055.2,240.0L1055.7,239.4L1056.0,238.9L1055.6,239.0L1055.3,238.9L1055.0,239.0L1054.6,239.1L1054.9,238.8L1056.5,238.7L1059.0,237.8L1059.5,237.3L1060.7,236.7L1060.8,237.2L1060.9,237.3L1061.1,237.3L1061.1,237.4L1061.2,238.0L1061.5,238.2L1061.7,238.6L1061.7,239.0L1061.7,239.2ZM996.6,235.9L997.0,235.8L997.2,236.0L996.8,236.0L996.6,235.9ZM106.4,229.5L106.5,229.6L106.4,229.6L106.0,229.5L105.9,229.4L105.5,229.2L105.9,229.2L106.4,229.5ZM92.9,229.3L93.0,229.5L92.5,229.6L92.3,229.4L92.4,229.2L92.6,229.2L92.9,229.3ZM86.8,229.0L86.8,229.2L86.7,229.3L86.5,229.2L86.4,229.0L86.4,228.8L86.3,228.5L86.5,228.6L86.6,228.8L86.8,229.0L86.8,229.0ZM98.8,226.6L98.8,226.7L98.7,226.7L98.7,226.9L98.5,226.9L98.3,226.9L97.8,226.6L97.6,226.4L97.6,226.2L97.6,226.1L97.7,226.1L97.8,226.1L97.9,226.1L98.0,226.1L98.1,226.2L98.8,226.6ZM97.4,226.2L97.4,226.2L97.4,226.4L97.1,226.3L97.0,226.2L96.9,226.1L96.7,225.9L96.9,225.9L97.2,225.9L97.4,226.1L97.4,226.2ZM150.0,187.1L150.6,187.4L150.6,187.7L150.2,187.8L149.7,187.4L149.4,187.3L149.5,187.0L150.0,187.1ZM149.4,181.1L149.4,181.3L149.2,181.5L149.0,181.6L148.6,181.7L148.5,181.5L148.4,181.2L148.3,181.1L147.9,181.0L147.3,180.9L146.9,180.4L147.0,180.0L147.6,179.9L148.0,179.8L148.5,179.7L149.1,179.9L149.4,180.6L149.4,180.7L149.1,180.5L149.0,180.3L148.9,180.4L148.8,180.7L149.0,180.8L149.4,180.9L149.4,181.1ZM-1301.8,173.5L-1301.5,173.4L-1301.2,173.7L-1301.5,174.1L-1301.8,174.0L-1301.8,173.7L-1301.8,173.5ZM197.4,164.6L197.6,165.0L197.6,165.3L197.0,165.2L196.0,164.7L196.1,164.3L196.7,164.3L197.3,164.5L197.4,164.6ZM124.8,160.9L124.9,161.1L124.6,161.1L124.5,161.0L124.5,160.8L124.7,160.8L124.8,160.9ZM314.9,141.2L314.9,141.5L314.9,141.4L314.6,141.3L314.4,141.2L314.1,141.0L313.7,140.6L311.5,139.7L311.9,139.7L314.6,140.7L314.5,140.8L314.6,141.0L314.9,141.2ZM136.4,139.1L137.7,139.0L138.9,139.6L136.1,139.4L136.1,139.3L136.4,139.1ZM251.8,141.5L251.3,142.4L250.3,143.0L250.4,142.8L250.4,142.6L250.8,141.9L251.1,141.4L250.8,141.5L249.7,142.0L249.2,142.2L248.5,142.8L248.9,142.8L248.7,143.1L247.5,144.0L247.0,144.1L246.2,144.5L244.8,144.7L244.6,144.8L241.0,145.5L240.8,145.5L240.7,145.3L240.4,145.3L240.3,145.4L239.5,145.5L239.0,145.1L238.1,144.7L237.8,144.5L237.7,144.4L237.6,144.1L237.6,144.0L237.4,143.9L237.1,144.0L236.9,143.9L236.9,143.6L237.0,143.3L237.2,143.1L237.1,143.0L236.9,143.0L236.8,142.9L236.9,142.9L236.9,142.7L236.9,142.4L236.9,142.3L236.9,142.2L237.2,141.8L237.2,141.6L237.2,141.2L237.3,140.7L237.5,140.3L238.2,139.7L238.5,139.4L239.3,138.9L241.8,138.0L244.3,138.0L249.7,140.0L251.1,140.7L251.8,141.5ZM1095.3,134.8L1095.3,135.0L1095.2,135.2L1095.1,135.3L1095.0,135.5L1094.3,135.5L1094.1,135.6L1094.3,135.8L1094.1,136.2L1094.3,136.5L1094.1,136.9L1093.5,137.4L1092.4,137.4L1088.7,136.9L1086.0,136.1L1085.5,135.6L1084.2,135.3L1083.3,134.9L1083.8,134.5L1086.4,133.2L1086.7,133.2L1086.9,133.1L1089.9,133.6L1090.9,133.9L1094.1,134.3L1095.1,134.5L1095.3,134.8ZM324.1,135.1L323.9,135.3L323.5,135.9L322.1,136.3L320.1,136.1L319.6,136.4L317.2,136.1L317.1,135.4L317.5,135.1L315.4,134.4L313.8,134.1L313.6,134.2L313.4,134.5L312.8,134.2L310.3,132.2L310.4,131.9L310.3,131.6L309.8,131.6L309.4,131.4L309.3,131.1L312.0,131.2L311.1,130.6L309.8,130.0L310.9,129.9L311.5,129.5L311.3,129.3L312.3,129.1L313.6,129.0L315.7,129.9L317.1,130.9L318.2,131.6L318.7,131.9L320.0,132.4L321.0,132.7L323.7,134.1L323.7,134.7L324.1,135.0L324.1,135.1ZM299.9,127.9L300.6,128.3L300.4,128.4L299.5,128.1L299.5,128.2L300.0,128.5L298.6,128.2L298.5,127.9L298.6,127.9L298.1,127.7L298.7,127.7L299.3,127.8L299.6,128.0L299.9,127.9ZM1045.2,126.8L1045.6,126.9L1045.7,127.0L1044.2,127.0L1044.4,127.0L1044.5,127.0L1044.7,126.9L1045.0,127.0L1045.2,126.9L1045.2,126.8ZM1040.2,125.7L1040.3,126.0L1040.2,126.1L1039.5,125.7L1039.2,125.7L1038.9,125.6L1038.8,125.5L1038.9,125.4L1039.2,125.2L1039.4,125.3L1039.6,125.5L1040.0,125.5L1040.3,125.6L1040.2,125.7ZM1033.5,125.3L1033.8,125.6L1032.6,125.7L1032.0,125.3L1032.3,124.8L1031.8,124.9L1031.3,124.5L1031.6,124.3L1032.2,124.4L1033.3,124.7L1033.4,124.9L1033.5,125.3ZM272.4,121.6L272.2,121.9L272.3,122.1L271.9,122.4L271.8,122.6L271.9,122.7L271.8,122.8L271.6,122.9L271.3,122.8L271.1,123.0L271.2,123.5L271.7,123.8L271.2,124.0L270.8,123.8L270.5,123.4L270.4,123.2L269.3,122.8L269.3,122.6L269.2,122.4L269.1,122.1L268.5,121.9L268.3,121.7L267.9,121.4L267.3,121.3L266.2,121.3L265.3,120.9L265.2,120.5L265.5,120.4L266.4,120.1L266.9,120.1L267.3,120.0L268.2,120.1L268.6,120.3L268.9,120.3L268.5,120.0L268.7,119.8L269.9,120.1L270.2,120.3L270.4,120.6L270.7,120.8L270.9,121.0L270.2,120.7L269.9,120.4L269.4,120.1L268.9,120.1L269.7,120.4L269.7,120.6L269.2,120.6L271.2,121.4L271.9,121.4L271.6,121.3L271.3,121.2L271.6,121.1L271.9,121.1L272.2,121.2L272.1,121.5L272.4,121.6ZM872.0,118.3L872.4,118.8L871.0,119.6L870.4,119.7L869.2,119.1L868.3,119.1L867.8,118.9L867.4,119.0L868.2,119.2L868.3,119.4L868.2,119.4L868.0,119.6L865.5,118.7L866.4,118.4L868.9,118.1L869.8,118.1L870.5,118.0L871.7,118.1L872.0,118.3ZM449.7,108.8L450.6,109.4L449.7,109.7L448.3,110.3L447.3,110.5L446.1,111.2L442.1,111.3L440.1,111.3L439.6,110.9L439.9,110.6L442.3,109.7L442.5,109.5L442.9,108.9L443.8,108.5L445.0,108.0L447.9,108.4L449.4,108.6L449.7,108.8ZM807.7,107.8L808.2,107.9L808.7,108.4L807.8,108.5L807.5,108.7L807.2,108.8L807.3,108.9L806.1,109.0L805.2,108.8L804.2,108.7L802.5,108.0L804.6,107.8L807.7,107.8ZM804.0,106.3L804.8,105.7L807.0,105.6L808.8,105.1L811.7,105.8L811.2,106.7L808.8,106.7L804.0,106.3ZM458.8,106.7L458.6,107.1L454.9,106.9L454.0,106.9L452.8,106.5L452.4,106.1L452.3,105.9L452.1,106.0L452.1,106.3L452.0,106.3L452.0,105.8L452.3,105.5L454.1,104.5L456.1,103.5L456.5,103.7L457.5,104.2L457.6,104.3L457.6,104.4L457.7,104.6L458.7,105.2L458.7,105.4L458.4,105.3L458.4,105.5L458.6,105.8L458.6,106.0L458.7,106.2L458.7,106.3L458.6,106.4L458.6,106.6L458.8,106.7L458.8,106.7ZM424.6,103.5L426.2,103.9L425.6,103.7L424.9,103.6L424.4,103.7L424.4,104.2L424.0,104.9L424.1,105.2L424.4,105.5L424.3,105.8L423.6,105.7L423.7,105.5L421.9,105.2L421.8,105.1L421.1,104.9L420.3,104.5L420.1,104.2L420.7,103.5L422.8,103.2L424.6,103.5ZM747.1,103.5L746.8,103.9L746.7,104.1L743.8,104.1L743.2,104.2L743.5,103.8L742.7,103.4L742.8,103.2L745.3,102.9L747.1,103.5ZM438.5,102.7L438.8,102.9L438.8,103.1L438.5,103.1L435.9,103.1L434.6,102.6L434.6,102.4L437.3,102.7L438.5,102.7ZM402.9,102.3L403.0,102.5L403.2,103.2L403.4,104.2L401.7,103.0L400.6,102.8L400.3,103.0L398.0,103.3L394.4,104.0L392.6,104.0L392.1,103.6L391.9,103.5L391.2,103.8L391.2,104.0L391.7,104.1L391.8,104.3L391.0,104.2L390.5,104.2L390.2,104.1L390.3,103.6L390.5,103.4L391.3,102.7L391.5,102.4L391.6,102.0L391.3,101.5L391.2,101.2L390.8,100.7L394.4,99.7L394.8,99.9L395.7,99.7L399.8,100.0L399.9,100.3L399.0,100.2L399.1,100.4L399.2,100.7L398.9,100.9L398.8,101.2L398.8,101.4L398.7,101.6L398.1,101.9L398.6,101.8L399.2,101.9L399.9,101.9L400.1,102.0L400.2,101.8L400.5,101.5L401.2,101.3L401.3,101.1L402.5,101.8L402.7,102.1L402.9,102.3ZM439.0,100.2L438.7,100.3L437.6,99.8L434.4,99.6L434.8,99.1L436.6,99.5L438.8,100.0L439.0,100.2ZM433.1,99.5L432.7,99.6L432.7,99.8L432.9,100.0L430.0,100.2L430.2,100.1L430.3,99.9L430.4,99.7L429.9,99.9L429.2,100.2L429.1,100.4L429.2,100.6L428.9,100.7L428.7,100.6L428.7,100.4L428.7,100.4L429.1,100.0L430.9,99.2L434.2,99.1L433.1,99.5ZM911.4,101.4L911.8,102.1L911.7,102.5L909.3,102.8L904.7,102.4L902.5,102.2L897.5,101.6L894.2,100.9L890.3,100.6L887.9,101.2L885.5,101.2L885.1,100.5L887.3,100.1L890.3,99.8L891.4,98.9L891.8,98.4L892.4,97.8L892.7,97.2L893.1,96.8L894.8,96.0L895.0,96.0L895.1,96.1L896.5,96.2L901.3,95.7L904.3,96.3L907.2,97.7L907.6,97.8L908.2,98.2L910.9,99.3L911.4,99.9L911.3,100.5L911.2,100.7L911.2,100.9L911.3,101.0L911.4,101.1L911.4,101.2L911.4,101.3L911.4,101.4ZM777.6,95.7L778.1,95.8L777.9,96.1L777.1,96.4L776.8,96.3L776.4,96.3L776.1,96.3L775.8,96.1L775.6,96.1L775.6,95.9L776.0,95.8L776.0,95.7L775.9,95.7L776.2,95.5L776.9,95.5L777.6,95.7ZM492.8,94.7L492.7,94.9L492.9,95.3L491.9,95.2L489.6,94.9L489.4,94.8L489.5,94.7L490.1,94.6L491.4,94.7L492.9,94.4L493.2,94.5L493.0,94.7L492.8,94.7ZM486.8,93.7L487.2,93.8L487.6,94.0L487.3,94.2L487.0,94.1L486.0,94.2L486.2,94.4L486.2,94.5L483.7,94.0L482.0,94.0L482.2,93.7L483.6,93.6L486.8,93.7ZM480.1,93.3L481.1,94.1L480.5,94.3L480.0,94.2L478.5,94.1L478.3,93.8L478.4,93.6L478.9,93.4L480.1,93.3ZM860.3,95.3L860.2,95.7L859.7,95.9L859.6,96.0L859.5,96.1L859.0,95.9L858.9,95.7L856.6,94.5L856.2,94.2L856.0,93.8L855.0,93.4L854.5,93.3L854.1,92.6L853.9,92.4L854.2,92.4L855.5,92.6L857.5,93.5L858.1,93.8L858.6,93.9L860.0,94.7L860.3,95.3ZM894.5,93.4L894.4,93.6L894.4,93.8L894.4,93.9L894.3,94.0L894.4,94.1L894.4,94.3L894.3,94.3L894.2,94.5L894.2,94.8L893.8,95.0L892.7,95.1L892.0,95.3L891.5,95.4L890.8,95.7L889.9,95.8L888.2,94.6L888.0,93.9L888.1,93.0L889.2,92.4L893.1,92.2L894.3,92.6L894.6,93.2L894.5,93.4ZM717.5,91.5L717.7,91.8L717.5,92.1L716.9,92.1L716.3,92.0L716.1,92.0L716.0,91.8L716.3,91.4L716.7,91.3L717.3,91.3L717.5,91.5ZM496.4,90.0L496.9,90.1L496.6,90.3L495.0,90.3L494.1,90.5L495.4,91.1L493.1,90.6L493.2,90.4L496.4,90.0ZM698.5,90.6L698.6,90.9L698.6,91.1L698.2,91.2L697.9,91.7L697.5,92.1L697.2,92.3L697.1,92.5L695.8,92.8L695.2,93.1L694.5,93.8L693.2,93.9L691.9,93.7L689.4,93.4L688.1,92.8L684.9,92.1L684.7,91.6L686.0,91.2L687.2,91.5L687.8,91.5L688.4,91.1L688.3,90.8L688.5,90.6L688.4,90.4L688.6,89.7L691.4,89.8L695.9,90.1L698.2,90.4L698.5,90.6ZM501.1,89.4L501.7,89.6L501.8,90.0L500.9,90.4L499.1,90.3L498.5,90.0L498.6,89.5L501.1,89.4ZM505.0,89.5L505.8,89.7L505.5,90.1L505.1,90.1L504.7,89.9L504.2,90.0L504.3,90.1L504.5,90.2L504.3,90.4L503.4,90.6L502.3,90.4L502.1,90.2L502.5,90.0L502.9,89.4L503.2,89.3L504.0,89.3L505.0,89.5ZM459.2,89.1L458.7,89.4L458.6,89.8L457.9,89.9L455.9,89.0L456.3,89.1L456.9,89.3L457.0,89.0L456.1,88.8L456.6,88.5L457.1,88.6L457.0,88.7L457.2,88.9L459.1,89.1L459.2,89.1ZM498.9,87.7L498.0,87.6L499.8,87.4L500.6,87.1L501.1,87.2L501.7,87.2L502.0,87.3L502.0,87.6L502.3,87.8L502.0,87.9L500.9,88.0L500.6,87.8L499.9,87.6L498.9,87.7ZM511.7,85.3L512.5,85.9L512.0,86.2L511.4,86.4L510.9,86.3L509.6,86.1L509.3,86.3L509.7,86.5L510.3,86.7L510.9,87.0L509.6,86.7L508.3,86.8L507.7,86.7L506.7,86.7L506.5,86.5L506.0,86.3L506.1,86.1L506.3,86.1L506.7,86.2L508.4,86.3L508.5,86.1L508.2,85.7L507.9,85.5L508.9,85.5L508.8,85.7L510.9,85.4L511.7,85.3ZM477.1,83.9L477.2,84.1L477.2,84.4L476.3,84.0L476.7,83.7L477.1,83.9ZM477.8,81.7L478.1,81.9L477.8,82.1L476.4,82.0L476.4,82.2L476.5,82.4L476.3,82.6L476.4,82.8L476.2,82.9L476.1,83.0L476.1,83.1L476.2,83.4L476.2,83.6L475.8,83.5L475.4,83.3L475.3,83.0L475.4,82.7L475.0,82.2L474.7,82.2L474.4,82.5L474.0,82.2L474.1,82.5L473.9,82.6L472.9,82.2L473.1,81.9L472.6,81.9L472.7,81.6L474.3,80.8L474.5,81.0L474.2,81.4L474.2,81.6L475.7,81.5L475.7,81.2L475.3,81.0L475.3,80.9L475.7,80.8L475.6,80.6L475.4,80.5L477.3,80.3L477.2,80.4L477.2,80.5L477.0,81.0L477.0,81.2L476.5,81.2L477.2,81.2L477.6,81.4L477.7,81.5L477.8,81.7ZM963.4,83.7L963.7,84.1L962.6,85.0L962.4,85.1L962.5,85.7L956.1,87.1L952.0,87.6L942.0,86.1L940.0,85.5L930.8,83.6L930.0,82.9L930.6,82.0L930.8,81.5L931.0,81.2L932.1,80.7L932.0,79.6L934.1,80.2L934.2,80.6L933.7,81.1L934.7,81.7L938.8,81.9L938.0,81.5L938.9,81.4L939.1,81.3L944.3,81.2L947.3,82.0L947.4,83.0L948.4,83.1L953.8,82.8L959.1,83.5L959.1,83.6L961.1,84.2L962.2,84.1L962.3,83.7L963.4,83.7ZM865.4,79.6L865.3,79.5L865.3,79.4L865.3,79.4L865.3,79.5L865.9,79.7L865.9,79.8L865.5,79.7L865.4,79.6ZM866.0,79.1L866.1,79.1L866.5,79.0L865.4,79.3L865.4,79.3L866.0,79.1ZM858.4,80.2L858.2,80.7L858.7,81.0L858.3,81.3L854.6,81.7L854.6,81.4L854.6,81.1L854.6,80.8L855.0,80.6L855.2,80.2L855.5,79.5L855.2,78.8L855.4,78.7L855.5,78.4L855.4,78.3L855.6,78.2L855.6,78.0L855.6,77.9L855.7,77.8L856.0,77.6L856.2,77.5L856.2,77.3L856.2,77.2L856.3,76.9L856.4,77.1L856.9,77.5L857.2,78.1L857.4,78.3L857.5,78.5L858.0,78.8L858.3,78.8L859.2,79.1L859.8,79.3L858.4,80.2ZM476.9,76.7L477.9,76.9L474.4,76.7L473.2,76.5L473.1,76.3L473.5,76.3L473.5,76.3L476.9,76.7ZM485.1,76.1L485.1,76.3L484.4,76.5L483.3,76.3L482.2,76.5L482.1,76.2L481.1,76.2L478.8,76.2L478.1,76.1L479.0,76.0L479.9,75.7L480.7,75.7L483.0,75.9L485.1,76.1ZM924.8,80.1L920.0,81.4L921.8,82.6L918.6,84.2L913.3,84.5L907.3,83.9L906.2,83.1L904.4,81.7L905.4,80.5L907.3,78.3L903.2,78.4L902.2,79.1L901.5,80.1L904.0,83.0L906.8,84.6L911.3,86.2L905.5,86.5L901.5,85.6L902.3,85.2L886.7,86.5L884.8,85.6L883.3,86.7L883.3,87.4L873.4,87.3L871.1,85.5L865.0,82.4L867.3,82.0L866.7,81.4L867.3,80.3L866.9,79.7L866.5,79.0L866.8,77.7L870.8,78.0L868.5,76.5L873.3,74.8L873.6,74.5L875.7,75.0L876.2,74.0L879.4,73.8L885.9,76.2L885.3,76.6L888.9,77.3L889.9,78.8L894.1,79.2L893.1,77.9L893.4,75.5L897.1,74.7L896.0,73.9L907.5,77.3L913.6,77.3L920.2,78.6L924.8,80.1ZM579.8,73.1L579.7,73.4L579.4,73.6L579.3,73.9L579.4,74.1L579.1,74.1L578.9,73.8L579.0,73.6L578.5,73.1L578.2,73.0L577.8,73.1L577.7,73.3L578.2,73.6L577.2,73.5L577.2,73.7L578.0,74.0L577.9,74.3L577.5,74.4L577.7,74.5L577.7,74.6L576.5,74.2L573.1,74.0L572.9,73.8L570.0,73.6L570.4,73.4L570.3,73.2L570.4,73.0L570.6,72.9L571.6,73.0L571.9,73.3L572.5,73.3L573.6,72.8L574.1,72.8L575.4,72.9L575.7,73.1L575.7,73.4L576.1,73.4L576.5,73.0L577.2,72.7L579.8,73.1ZM697.7,72.2L696.4,72.0L697.1,71.5L697.8,71.6L697.4,71.8L698.5,71.9L698.5,72.2L697.7,72.2ZM688.2,69.9L688.4,69.8L688.6,69.7L688.4,69.7L688.3,69.6L690.4,69.7L690.7,69.6L690.8,69.3L691.1,69.3L691.4,69.5L692.2,69.7L692.1,69.8L692.1,69.9L692.3,70.1L692.2,70.2L692.5,70.3L692.4,70.4L692.1,70.5L693.1,70.5L693.6,70.7L693.4,70.8L692.7,70.8L692.7,70.9L692.9,71.1L692.8,71.4L691.8,71.3L691.3,71.0L690.7,70.5L689.4,70.4L689.1,70.2L688.8,70.0L688.2,69.9ZM578.6,69.0L577.8,69.3L577.7,69.6L577.0,69.7L575.9,69.8L575.1,69.7L574.8,69.8L574.5,69.6L574.5,69.5L574.7,69.3L575.2,69.1L576.6,69.0L576.9,68.8L577.6,68.8L578.5,68.8L578.6,69.0ZM572.7,69.1L573.2,69.0L574.0,69.0L573.7,69.2L571.9,69.4L571.2,69.2L571.2,69.0L571.6,68.8L572.1,68.9L572.5,69.2L572.7,69.1ZM585.7,69.4L586.0,69.7L586.3,70.0L585.7,70.0L584.7,69.9L584.9,69.7L585.0,69.4L585.0,69.2L584.8,69.1L584.3,69.0L585.0,68.8L585.5,68.8L585.7,69.2L585.7,69.4ZM953.2,68.6L952.4,68.8L952.2,69.2L952.3,69.6L950.8,69.6L947.6,69.7L946.5,69.6L946.7,69.3L947.8,69.1L949.0,68.8L950.4,68.6L953.7,68.3L953.2,68.6ZM579.0,64.1L579.2,64.5L578.6,65.3L577.8,65.5L577.1,65.7L577.2,65.9L577.4,65.9L576.9,66.1L576.1,66.0L575.3,66.2L573.1,66.5L573.5,66.3L573.8,66.1L574.9,65.9L574.3,65.8L571.8,66.0L569.8,66.0L570.2,65.8L571.1,65.5L573.1,65.3L577.4,64.5L578.5,64.0L579.0,64.1ZM644.5,63.4L645.8,63.1L645.9,63.4L645.0,63.6L644.6,63.5L644.5,63.4ZM530.5,63.4L531.4,64.0L529.1,64.7L527.0,64.2L526.8,63.6L527.5,63.2L529.9,63.0L530.5,63.4ZM648.6,63.0L648.9,62.9L649.3,63.0L648.8,63.1L648.4,63.0L648.6,63.0ZM658.4,62.9L658.3,63.1L658.1,63.2L658.2,63.4L658.0,63.5L655.5,63.8L654.9,63.7L654.6,63.8L654.7,63.7L656.1,63.5L656.0,63.3L655.1,63.1L655.9,62.6L656.4,62.7L657.2,62.9L657.6,62.9L657.8,62.8L658.3,62.8L658.4,62.9ZM652.1,61.8L652.3,62.0L652.0,62.0L651.4,62.0L651.3,62.1L650.6,62.4L649.8,62.2L650.0,61.8L650.5,61.8L650.9,61.6L651.9,61.5L652.6,61.6L652.6,61.7L652.1,61.8ZM658.1,55.1L657.5,55.7L656.3,55.9L656.1,55.7L656.2,55.6L654.5,55.6L648.8,55.2L649.4,54.9L652.6,54.7L652.7,54.8L654.7,54.8L654.9,54.9L655.1,54.8L655.2,54.7L655.5,54.6L657.4,54.7L657.6,54.9L658.0,55.0L658.1,55.1ZM649.8,54.0L647.4,54.6L646.7,54.4L646.0,54.3L646.2,54.0L646.5,53.8L648.4,53.9L648.7,53.6L649.4,53.1L650.7,53.2L651.3,53.4L651.3,53.6L651.2,53.9L650.9,53.9L650.6,53.8L649.2,53.9L649.5,54.0L649.8,54.0ZM641.9,50.8L637.0,53.2L629.8,54.0L623.6,54.7L618.4,54.5L607.7,55.8L599.2,56.7L599.2,55.8L603.3,53.2L604.2,52.1L604.9,51.3L605.3,50.0L608.0,48.8L611.5,49.0L609.1,47.8L610.8,46.5L610.8,45.9L611.8,45.1L614.6,44.0L615.2,43.3L617.4,44.3L618.7,43.5L619.1,42.9L624.4,43.6L623.8,44.7L622.5,46.2L622.1,46.9L621.5,48.3L624.2,46.3L628.5,45.5L629.1,45.4L632.0,46.0L635.3,47.9L636.5,48.6L637.2,48.7L640.7,49.2L641.5,50.7L641.9,50.8ZM445.0,41.8L444.9,42.0L441.7,42.2L438.1,42.1L438.5,41.9L438.4,41.8L437.9,41.6L437.6,41.7L434.8,41.4L434.0,40.8L434.3,40.5L435.2,40.5L434.8,40.7L435.0,41.0L436.5,40.9L437.0,40.6L442.3,41.4L445.0,41.8ZM558.4,37.9L559.4,38.0L559.5,38.4L558.7,38.8L556.5,39.4L554.3,40.0L548.8,40.3L546.4,40.3L546.6,40.2L546.4,40.0L546.5,39.9L548.3,39.8L549.1,40.0L549.4,39.8L548.9,39.4L545.2,38.9L540.3,38.7L540.3,38.4L541.0,38.2L541.9,38.0L540.4,37.7L540.2,37.5L541.1,37.3L541.0,37.0L540.6,36.7L539.7,36.7L538.9,36.6L541.6,36.7L545.4,36.6L549.9,36.9L555.0,37.6L558.4,37.9ZM259.0,37.7L259.9,37.8L259.9,38.0L256.3,37.8L249.8,37.5L249.9,37.4L253.4,37.3L253.9,36.9L254.4,36.7L256.3,36.2L256.8,36.4L257.2,36.6L258.3,36.7L258.0,36.9L258.0,37.1L258.1,37.3L259.0,37.4L259.2,37.6L259.0,37.7ZM154.6,35.7L156.4,35.8L155.9,35.9L154.9,35.8L154.6,35.7ZM602.7,46.4L599.3,48.5L591.1,48.7L585.2,48.5L581.7,47.4L577.7,46.8L572.7,46.4L571.1,45.8L566.9,46.2L563.3,44.1L563.4,42.9L559.2,42.5L559.3,41.6L559.0,41.3L557.2,42.1L554.8,42.3L552.9,41.5L559.5,40.5L563.9,38.6L563.6,37.7L567.4,36.7L569.7,37.0L573.8,36.2L577.6,36.2L581.6,35.9L588.6,36.2L588.3,37.3L587.6,38.3L586.8,39.2L584.6,39.9L588.8,38.6L592.5,38.1L593.5,37.5L598.1,37.0L599.1,37.4L602.2,38.2L603.0,38.6L602.2,39.7L601.7,41.2L601.4,42.6L600.7,44.0L597.5,43.8L600.2,45.6L602.7,46.4ZM250.1,36.6L249.5,36.7L248.0,36.3L246.9,36.0L246.3,35.8L246.4,35.6L248.7,35.0L251.1,35.0L251.9,35.5L250.4,35.9L250.1,36.2L250.0,36.3L249.9,36.4L250.1,36.5L250.1,36.6ZM290.5,31.0L289.5,31.0L289.7,30.6L288.4,30.5L288.1,30.3L288.8,30.1L290.0,30.2L290.3,30.0L293.1,29.8L296.1,29.8L296.0,29.9L298.0,30.2L298.6,30.6L298.6,30.7L298.6,30.8L294.3,31.2L294.5,31.1L290.8,31.1L290.5,31.0ZM226.0,32.1L224.9,32.2L221.8,33.0L221.5,32.2L221.1,31.7L219.5,31.8L217.7,32.2L216.8,31.7L213.4,31.2L224.8,30.3L224.3,30.1L229.7,29.4L234.4,29.4L239.6,30.1L240.1,30.7L240.7,31.3L238.6,31.0L235.3,30.4L233.3,29.8L232.6,30.2L232.1,30.6L230.4,30.9L229.7,31.2L228.5,31.7L225.7,31.9L226.0,32.1ZM336.0,29.4L336.3,29.6L336.4,29.9L336.1,30.2L334.7,30.8L335.5,31.1L335.0,31.3L332.3,31.5L332.3,31.7L331.7,31.8L331.7,32.1L329.3,32.4L330.1,32.5L330.0,32.7L329.4,32.9L328.0,33.3L324.3,32.9L321.6,32.5L321.4,32.7L320.5,32.8L318.1,33.1L316.7,32.6L315.0,32.0L315.4,32.0L315.9,31.7L315.3,31.6L315.3,31.3L314.8,30.9L315.3,30.7L315.4,30.6L315.4,30.4L315.8,30.3L316.1,30.0L317.3,29.6L317.2,29.5L318.3,29.2L319.0,29.2L321.5,29.0L322.1,29.2L320.1,29.4L322.8,29.5L322.8,29.6L322.9,29.6L324.3,29.3L331.2,28.9L331.1,28.8L331.7,28.6L335.9,29.3L336.0,29.4ZM307.1,29.7L305.3,29.7L304.8,29.4L305.5,29.3L306.3,29.1L309.3,28.7L312.7,28.7L313.1,29.0L313.4,29.3L313.3,29.4L312.8,29.7L311.6,29.7L310.0,30.0L307.1,29.7ZM290.3,29.7L284.0,30.3L282.6,30.0L282.7,29.8L282.5,29.6L281.7,29.7L277.9,29.6L277.7,29.4L278.5,29.0L280.7,29.0L283.1,28.9L283.3,29.0L283.7,29.2L284.1,29.0L284.8,28.6L285.6,28.5L287.5,28.9L291.9,29.5L290.3,29.7ZM261.5,30.2L261.8,30.4L257.8,31.3L250.4,32.2L247.4,32.7L248.2,33.2L243.6,33.6L240.0,34.2L242.7,34.9L243.2,35.4L242.3,35.7L239.5,35.3L239.0,36.0L236.9,35.9L235.6,36.1L233.0,36.5L232.7,36.1L234.6,35.3L234.8,34.8L230.9,35.3L227.5,35.3L225.6,34.4L229.6,33.9L232.8,34.2L236.4,33.9L232.8,33.5L236.8,33.0L236.1,32.6L231.2,32.7L237.5,31.8L239.3,32.1L240.9,32.4L242.1,32.1L243.7,31.9L244.3,31.7L245.1,31.3L246.9,31.1L247.1,30.7L247.3,30.3L244.6,30.2L242.4,30.3L243.0,29.8L248.1,28.6L252.6,28.5L249.7,29.0L255.7,28.5L255.1,29.2L253.4,29.6L251.5,30.1L254.1,29.9L255.5,29.8L257.1,30.0L258.8,29.6L259.8,30.1L261.5,30.2ZM460.6,27.9L465.0,28.2L464.8,28.7L464.2,28.9L458.6,29.3L454.9,29.3L454.7,28.9L455.7,28.3L456.2,28.1L456.4,28.0L460.0,27.8L460.6,27.9ZM310.8,27.2L310.4,27.7L310.1,28.0L307.9,28.0L305.0,27.2L305.2,27.0L306.1,26.7L306.6,26.5L310.8,27.2ZM301.5,28.6L300.5,28.5L300.7,28.3L300.1,28.0L298.8,27.9L298.5,27.8L298.3,27.6L298.3,27.5L297.8,27.4L295.3,27.0L292.7,26.7L292.7,26.6L293.0,26.4L293.6,26.6L297.5,26.7L298.7,26.9L300.9,27.0L303.7,27.4L303.9,27.6L306.3,28.1L307.9,28.4L305.2,29.0L302.9,28.9L301.5,28.6ZM281.8,27.7L280.8,27.5L280.9,27.3L281.3,27.1L281.7,27.0L281.7,26.8L282.6,26.4L283.9,26.8L288.6,27.5L292.1,27.2L296.4,27.8L299.0,28.6L303.9,29.4L304.1,29.6L303.9,29.8L303.1,30.0L299.5,30.6L298.0,29.9L297.0,29.7L296.9,29.6L296.9,29.5L293.6,29.2L290.4,28.9L290.3,28.8L290.1,28.6L287.6,28.3L287.8,28.0L287.6,27.9L286.4,28.1L284.4,28.0L284.1,27.7L284.0,27.6L281.8,27.7ZM252.9,26.9L252.2,26.6L252.1,26.4L253.0,26.4L253.3,26.3L253.0,26.1L255.0,26.0L256.0,26.2L256.4,26.6L256.1,26.7L254.8,26.9L255.0,27.0L255.0,27.2L253.6,27.2L252.4,27.5L252.2,27.4L252.3,27.3L252.6,27.1L252.9,26.9ZM543.7,26.1L543.9,26.3L542.4,26.6L542.2,26.8L538.3,26.9L532.7,26.6L532.3,26.4L532.2,26.2L532.1,26.0L532.3,25.9L533.2,25.6L536.5,25.6L543.0,25.8L543.7,26.1ZM587.6,30.1L588.6,30.6L587.4,30.8L584.6,30.9L583.5,31.0L582.7,31.7L582.4,32.0L583.3,32.7L583.8,33.1L583.7,33.7L585.3,34.1L584.7,34.4L583.6,35.0L568.4,35.9L564.8,36.0L562.3,36.8L553.9,36.3L547.4,35.6L548.2,35.3L548.4,35.3L552.4,35.4L548.6,34.9L549.7,34.4L556.0,34.7L555.3,34.2L543.6,34.4L542.8,34.2L544.6,33.6L547.6,33.5L551.3,33.5L546.1,32.8L552.5,32.1L552.7,31.7L552.4,31.5L553.2,30.7L552.2,29.8L550.5,29.9L551.4,29.4L552.1,29.0L552.0,28.7L555.1,28.1L554.3,27.7L558.8,27.2L562.2,26.7L568.9,25.7L568.4,25.2L574.5,25.2L575.0,25.6L576.5,26.0L577.3,26.3L579.2,27.4L579.9,27.8L580.6,28.1L585.3,29.0L587.6,29.3L588.1,29.6L587.6,30.1ZM301.0,23.5L297.3,23.3L297.4,23.1L298.6,23.0L299.1,22.7L298.9,22.7L299.2,22.5L302.7,22.4L302.6,22.3L302.7,22.2L304.9,22.3L304.7,22.5L305.1,22.6L305.1,22.7L305.0,22.9L307.2,23.0L310.0,23.5L309.8,23.7L308.3,24.0L304.7,24.0L303.3,23.8L303.1,23.6L302.9,23.5L301.0,23.5ZM338.0,21.3L335.2,21.1L335.7,20.9L336.1,20.9L338.3,20.8L340.2,20.7L339.9,20.8L346.4,20.9L347.1,21.5L346.6,21.7L343.7,21.9L341.2,21.8L338.8,21.6L338.0,21.3ZM308.2,20.7L305.4,20.8L305.4,20.7L305.5,20.5L305.7,20.5L305.8,20.4L307.2,20.1L306.1,20.0L306.0,19.8L307.3,19.6L312.3,19.4L315.4,19.5L316.3,19.8L316.0,19.8L315.8,20.1L315.9,20.3L313.2,20.5L308.2,20.7ZM963.5,359.6L963.5,359.7L963.1,359.6L963.2,359.5L963.3,359.3L963.4,359.5L963.5,359.6ZM991.8,328.9L992.0,329.0L992.3,329.1L992.2,329.6L992.1,329.9L991.7,330.3L991.6,330.5L991.6,331.0L991.7,331.2L991.8,331.4L991.7,331.5L991.8,331.7L991.7,332.0L991.7,332.1L991.6,332.2L991.4,332.3L991.2,332.3L991.1,332.4L991.0,332.6L990.7,332.5L990.2,332.3L990.2,332.2L990.2,332.0L990.2,331.5L990.4,331.0L990.8,330.7L990.9,330.5L991.0,330.1L991.3,329.8L991.2,329.6L991.2,329.4L991.4,329.3L991.7,328.9L991.8,328.9ZM313.5,76.0L314.2,75.9L314.9,75.7L315.1,76.0L314.6,76.2L313.9,76.3L312.9,76.4L311.9,76.6L311.1,76.6L313.2,76.2L313.5,76.0ZM313.2,37.4L311.6,37.0L311.8,36.8L317.0,36.1L318.8,36.3L319.1,36.4L319.2,36.6L319.2,36.8L319.2,36.9L319.3,37.1L319.7,37.2L319.3,37.3L317.1,37.8L316.4,37.7L316.1,38.0L314.7,37.9L314.5,37.8L314.3,37.7L313.2,37.4ZM289.9,36.2L292.3,35.3L291.9,35.2L292.0,35.0L291.7,34.8L291.8,34.5L291.9,34.3L291.8,34.2L291.8,34.0L292.9,33.8L296.5,34.1L296.9,33.8L299.2,33.7L300.0,34.3L299.7,34.6L299.7,34.9L299.9,35.2L300.1,35.2L300.0,35.4L299.5,35.6L299.6,35.9L300.0,36.1L299.6,36.4L296.4,36.5L291.6,36.5L289.9,36.2ZM268.1,35.5L266.2,35.2L265.0,34.6L265.5,34.5L267.7,34.4L267.8,34.3L268.7,34.2L268.8,34.0L268.6,34.0L268.5,33.8L269.1,33.6L270.1,33.3L270.9,33.4L271.8,33.3L273.2,33.4L273.2,33.8L276.8,34.6L276.8,34.7L276.2,35.1L275.7,35.1L275.5,34.9L275.3,34.8L274.9,34.9L274.6,35.1L274.4,35.4L274.2,35.6L268.2,35.6L268.1,35.5ZM302.8,36.0L301.9,35.9L301.1,35.6L301.1,35.4L301.1,35.1L300.6,34.9L300.9,34.6L300.8,34.4L300.9,34.1L300.5,33.8L301.0,33.5L300.5,33.1L301.4,32.6L306.7,32.7L310.1,32.9L311.6,33.1L314.6,33.6L314.9,33.8L315.2,34.0L310.3,34.0L310.1,34.2L308.9,34.1L307.5,34.4L307.1,34.5L306.8,34.7L306.8,34.8L309.2,34.9L309.5,35.1L309.2,35.4L309.3,35.5L307.9,35.4L306.8,35.5L306.6,35.4L306.5,35.3L306.4,35.2L305.7,35.4L305.5,35.6L305.8,35.7L306.0,35.9L306.1,36.1L305.9,36.3L303.1,36.0L302.8,36.0ZM276.4,32.7L276.7,32.4L276.8,32.3L277.6,32.1L276.8,31.9L276.8,31.5L279.7,31.6L279.4,31.7L278.8,31.9L280.7,32.0L280.7,32.3L281.1,32.5L281.1,32.6L280.9,32.8L280.6,32.8L280.4,32.9L280.2,33.1L279.5,33.2L276.4,32.7ZM322.1,27.3L323.9,26.9L327.2,26.7L332.2,26.5L332.2,26.6L331.8,26.7L331.8,26.9L331.8,27.1L331.6,27.3L327.3,28.4L322.7,28.1L320.8,27.8L320.8,27.5L322.1,27.3ZM339.9,28.7L341.1,28.5L342.6,27.9L348.9,27.7L350.0,27.4L350.0,27.2L350.2,27.1L349.9,26.9L349.5,26.7L349.7,26.5L350.1,26.4L350.4,26.1L351.6,25.7L354.2,25.8L357.3,26.3L358.4,27.0L358.8,27.3L357.9,27.7L358.5,27.7L358.9,28.1L359.0,28.3L356.8,29.1L356.1,29.2L355.9,29.4L353.4,29.8L352.2,30.0L349.3,30.2L346.4,30.2L342.5,30.7L338.8,29.6L338.1,29.4L338.1,29.2L338.2,29.1L339.9,28.7ZM301.4,25.6L303.4,25.5L304.7,25.4L305.9,25.3L306.7,25.5L304.5,26.2L301.8,26.4L299.3,25.9L300.8,25.8L301.4,25.6ZM289.5,25.7L289.0,25.6L288.9,25.4L289.1,25.3L289.1,25.1L289.2,25.0L288.0,24.9L288.5,24.8L288.6,24.7L288.2,24.5L289.9,24.4L290.1,24.6L290.8,24.5L291.2,24.5L291.3,24.6L291.7,24.7L293.5,24.9L296.3,25.1L296.0,25.0L294.9,24.6L294.9,24.4L294.7,24.2L294.5,24.0L294.4,24.0L297.1,23.8L297.4,24.0L297.8,24.1L300.2,24.1L302.1,24.4L302.3,24.6L303.4,24.4L305.5,24.8L302.1,25.1L297.0,25.7L295.0,25.9L294.7,25.7L293.7,25.4L290.1,25.7L289.5,25.7ZM310.1,24.5L309.6,24.5L309.5,24.3L309.9,24.2L313.4,23.7L314.2,23.9L315.0,24.0L315.8,24.3L315.7,24.7L314.8,24.7L310.8,24.7L310.1,24.5ZM333.8,21.8L335.0,21.9L335.7,22.1L335.8,22.2L333.3,22.2L332.0,21.8L333.8,21.8ZM181.9,185.4L182.0,185.5L181.8,185.6L180.1,185.5L179.6,185.1L179.2,184.7L178.9,184.6L178.1,184.6L177.7,184.4L177.5,184.4L177.7,184.3L178.6,184.1L178.8,184.2L179.3,184.2L180.0,184.2L180.5,184.4L180.6,184.7L181.2,185.0L181.8,185.1L181.9,185.3L181.9,185.4ZM178.7,183.9L178.3,184.0L178.6,183.8L178.7,183.9ZM179.7,183.9L178.9,183.7L179.5,183.5L181.1,183.6L181.4,183.9L181.5,184.6L181.6,184.8L181.3,184.9L180.9,184.7L180.5,184.3L179.9,184.0L179.7,183.9ZM150.5,180.9L150.6,181.0L150.4,181.1L149.8,181.2L149.7,181.1L149.6,181.0L149.9,180.8L150.1,180.8L150.3,180.8L150.5,180.9ZM151.9,179.8L152.2,179.9L151.8,180.0L151.1,180.1L150.9,180.1L150.7,180.1L150.5,180.1L150.0,179.9L150.0,179.6L150.3,179.5L150.3,179.6L150.4,179.6L150.6,179.7L150.8,179.8L150.9,179.9L151.9,179.8ZM280.2,149.5L280.3,149.7L280.1,150.0L279.4,150.2L279.2,150.1L279.2,150.0L279.2,149.9L279.5,149.6L280.2,149.4L280.1,149.4L279.9,149.5L280.1,149.5L280.2,149.5ZM277.2,149.1L277.8,149.2L277.5,149.7L277.0,149.7L276.8,149.5L276.8,149.3L276.9,149.2L277.2,149.1ZM242.8,146.0L243.3,146.1L240.8,145.9L241.1,145.8L242.8,146.0ZM246.5,144.7L246.7,144.7L246.3,144.9L245.9,144.9L246.5,144.7L246.5,144.7ZM279.7,144.7L280.6,145.0L279.4,144.9L279.2,144.8L279.3,144.7L279.4,144.6L279.7,144.7ZM248.2,143.9L248.4,143.8L248.0,144.1L247.7,144.1L248.0,144.0L248.2,143.9ZM284.7,143.5L285.1,143.6L284.8,143.8L284.4,143.7L284.3,143.5L284.7,143.5ZM250.1,143.3L250.3,143.3L250.0,143.5L249.5,143.6L250.0,143.4L250.1,143.3ZM371.4,138.9L372.1,138.7L371.6,139.0L371.0,139.3L370.8,139.4L370.4,139.4L369.6,139.0L369.5,138.5L369.7,138.6L369.8,138.6L370.0,138.7L371.0,138.9L371.4,138.9ZM372.2,137.4L372.3,137.7L372.1,138.2L371.9,138.6L371.5,138.8L370.3,138.6L370.0,138.3L371.0,137.5L372.0,137.3L372.2,137.4ZM368.7,129.6L368.9,129.7L368.2,129.4L367.0,128.8L367.3,128.3L367.6,128.2L367.5,128.4L367.7,128.6L367.8,128.7L367.8,128.8L368.0,128.9L368.0,129.0L368.1,129.1L368.1,129.1L368.5,129.5L368.7,129.6ZM366.8,128.1L366.9,128.5L366.5,128.4L365.9,127.9L365.6,127.3L365.5,126.6L365.6,126.3L365.7,125.9L365.8,125.6L366.1,125.8L366.2,126.0L366.2,126.2L366.1,126.4L366.0,126.7L366.3,127.0L366.3,127.2L366.4,127.3L366.6,127.5L366.7,127.7L366.8,128.1ZM367.0,124.5L366.9,124.7L366.8,124.8L366.6,125.1L366.4,125.4L366.0,125.4L365.9,125.2L366.5,124.4L366.5,124.3L366.5,124.3L367.1,123.7L367.1,123.9L367.0,124.1L366.9,124.2L367.0,124.3L367.0,124.5L367.0,124.5ZM273.4,120.9L273.5,121.0L273.4,121.0L272.5,120.7L272.2,120.5L271.9,120.4L271.9,120.3L272.2,120.3L272.4,120.3L273.4,120.9ZM977.9,74.2L978.0,74.4L977.8,74.7L977.2,74.9L975.9,74.4L975.8,74.2L976.8,73.9L977.8,73.8L977.9,73.9L977.9,74.2ZM1004.7,65.0L1004.8,65.1L1004.7,65.2L1003.7,65.2L1003.7,65.0L1004.0,64.8L1004.6,64.9L1004.7,65.0ZM547.3,60.0L547.7,60.1L547.6,60.2L546.8,60.4L546.1,60.2L546.1,59.9L547.3,60.0ZM311.9,38.0L312.3,38.2L311.9,38.3L310.8,38.2L310.5,38.1L309.9,37.9L307.9,37.8L310.6,37.4L310.7,37.5L310.7,37.6L311.6,38.0L311.9,38.0ZM321.5,35.6L321.8,35.8L321.5,35.9L319.6,35.6L319.6,35.5L321.0,35.5L321.5,35.6ZM280.7,34.5L280.9,34.6L280.7,34.7L280.6,34.8L280.7,35.1L280.1,35.3L279.2,35.3L279.1,35.4L278.8,35.4L278.8,35.3L278.9,35.2L278.9,35.1L279.0,34.9L278.7,34.8L278.6,34.7L278.6,34.5L279.2,34.3L280.0,34.3L280.7,34.5ZM288.4,34.2L288.6,34.3L288.5,34.4L288.4,34.6L287.9,34.7L286.7,35.0L285.4,35.1L284.9,34.9L284.7,34.9L284.5,34.9L284.4,34.9L284.5,34.8L284.4,34.7L284.7,34.7L285.0,34.7L285.2,34.7L286.0,34.5L285.8,34.5L285.4,34.4L287.0,34.0L287.6,34.0L288.4,34.2ZM284.8,33.2L285.6,33.2L286.3,33.0L286.8,33.1L286.8,33.2L286.8,33.3L286.8,33.5L285.8,33.6L285.5,33.6L285.5,33.5L284.8,33.4L284.7,33.3L284.8,33.2ZM283.8,33.1L283.9,33.1L283.8,33.2L283.5,33.3L283.4,33.4L281.5,33.6L280.6,33.5L280.7,33.5L281.1,33.4L281.3,33.1L281.9,32.8L282.3,32.6L283.0,32.7L283.5,32.9L283.8,33.1ZM283.6,32.8L282.2,32.3L282.8,32.2L285.3,32.4L285.4,32.5L285.4,32.6L285.2,32.7L284.8,32.9L283.6,32.8ZM318.4,25.8L318.6,25.9L318.5,26.0L315.9,25.9L313.2,25.7L313.9,25.6L318.4,25.8ZM324.3,25.0L324.4,25.0L323.7,25.2L321.3,25.1L319.2,24.8L320.5,24.6L324.1,24.9L324.3,25.0ZM308.8,22.0L308.1,21.9L308.2,21.8L308.9,21.6L310.3,21.6L310.7,21.5L311.0,21.6L311.1,21.7L310.9,21.9L308.8,22.0L308.8,22.0ZM833.3,394.4L833.5,394.7L833.4,394.7L833.3,394.7L833.2,394.5L833.1,394.4L833.0,394.4L833.0,394.2L833.1,394.1L833.2,393.8L833.3,394.0L833.3,394.3L833.3,394.4ZM234.3,383.2L234.4,383.3L233.7,383.9L233.3,383.8L233.1,383.8L233.0,383.6L232.8,383.7L232.7,383.5L233.0,383.2L234.0,383.2L234.3,383.2ZM235.3,369.1L235.3,369.2L235.3,369.2L235.2,369.2L234.9,368.8L234.8,368.1L234.7,367.8L234.7,367.6L234.8,367.5L235.0,367.4L235.1,367.4L235.1,367.7L235.2,368.1L235.3,368.4L235.3,369.1ZM881.3,281.4L881.5,281.3L881.6,281.2L881.5,281.4L881.2,281.5L881.3,281.4ZM874.0,280.2L874.3,280.2L874.1,280.3L873.9,280.3L874.0,280.2ZM950.7,237.2L950.9,237.1L951.1,237.1L951.5,237.0L951.3,237.2L951.2,237.5L950.7,237.4L950.7,237.2ZM-1325.8,184.8L-1325.6,185.0L-1326.1,185.3L-1326.4,185.3L-1327.2,185.2L-1327.3,185.1L-1327.4,185.0L-1327.5,184.8L-1327.2,184.8L-1325.8,184.8ZM372.6,144.9L372.8,145.2L372.7,145.3L372.3,145.2L372.3,145.2L371.3,144.8L371.0,145.0L370.7,144.9L370.7,144.8L372.3,144.8L372.6,144.9ZM-1347.8,120.1L-1347.7,120.1L-1347.8,120.3L-1348.1,120.3L-1348.4,120.2L-1348.6,120.0L-1349.0,120.0L-1349.3,119.7L-1347.9,120.0L-1347.8,120.1ZM1041.8,136.6L1041.9,136.9L1041.8,137.2L1041.6,137.6L1041.0,137.7L1040.7,137.5L1040.2,137.1L1040.2,136.8L1040.8,136.8L1041.8,136.6ZM1100.1,135.5L1101.1,135.6L1100.8,135.8L1099.9,136.3L1099.7,136.1L1099.0,136.0L1099.0,135.8L1100.1,135.5ZM485.3,125.6L486.5,126.2L485.8,126.9L485.3,127.5L485.0,128.4L485.4,129.1L484.5,129.7L483.6,129.8L484.1,129.1L484.1,128.3L484.1,127.5L484.6,126.7L484.8,125.9L485.3,125.6ZM586.9,68.4L586.9,68.5L586.7,68.6L586.3,68.4L585.6,68.8L585.5,68.7L585.5,68.6L585.5,68.5L583.4,68.4L586.0,68.2L586.8,68.3L586.9,68.4L586.9,68.4ZM526.0,64.7L526.4,65.1L525.4,65.7L525.6,66.1L524.4,66.2L523.3,65.3L526.0,64.7Z" fill="#e8edf0" stroke="#bac5cb" stroke-width="2" stroke-linejoin="round"/>
</svg>
